<svg xmlns="http://www.w3.org/2000/svg"><symbol id="sprite-clipboard" viewBox="0 0 24 24"><path fill="currentColor" d="M19 3h-4.18C14.25 1.44 12.53.64 11 1.2c-.86.3-1.5.96-1.82 1.8H5a2 2 0 00-2 2v14a2 2 0 002 2h14a2 2 0 002-2V5a2 2 0 00-2-2m-7 0a1 1 0 011 1 1 1 0 01-1 1 1 1 0 01-1-1 1 1 0 011-1M7 7h10V5h2v14H5V5h2v2m10 4H7V9h10v2m-2 4H7v-2h8v2z"/></symbol><symbol id="sprite-close" viewBox="0 0 24 24"><path fill="currentColor" d="M19 6.41L17.59 5 12 10.59 6.41 5 5 6.41 10.59 12 5 17.59 6.41 19 12 13.41 17.59 19 19 17.59 13.41 12 19 6.41z"/></symbol><symbol id="sprite-external" viewBox="0 0 24 24"><path fill="currentColor" d="M14 3v2h3.59l-9.83 9.83 1.41 1.41L19 6.41V10h2V3m-2 16H5V5h7V3H5a2 2 0 00-2 2v14a2 2 0 002 2h14a2 2 0 002-2v-7h-2v7z"/></symbol><symbol id="sprite-flag" viewBox="0 0 24 24"><path fill="currentColor" d="M6 3a1 1 0 011 1v.88C8.06 4.44 9.5 4 11 4c3 0 3 2 5 2 3 0 4-2 4-2v8s-1 2-4 2-3-2-5-2c-3 0-4 2-4 2v7H5V4a1 1 0 011-1z"/></symbol><symbol id="sprite-flash" viewBox="0 0 24 24"><path fill="currentColor" d="M7 2v11h3v9l7-12h-4l4-8H7z"/></symbol><symbol id="sprite-help" viewBox="0 0 24 24"><path fill="currentColor" d="M15.07 11.25l-.9.92C13.45 12.89 13 13.5 13 15h-2v-.5c0-1.11.45-2.11 1.17-2.83l1.24-1.26c.37-.36.59-.86.59-1.41a2 2 0 00-2-2 2 2 0 00-2 2H8a4 4 0 014-4 4 4 0 014 4 3.2 3.2 0 01-.93 2.25M13 19h-2v-2h2M12 2A10 10 0 002 12a10 10 0 0010 10 10 10 0 0010-10c0-5.53-4.5-10-10-10z"/></symbol><symbol id="sprite-mapillary" viewBox="0 0 24 24"><path fill="currentColor" d="M10.575 15.142a.486.486 0 01-.66.196l-6.66-3.6a.486.486 0 01.078-.89l5.406-1.803a.486.486 0 00.307-.307l1.803-5.406a.486.486 0 01.89-.078l3.6 6.66a.486.486 0 01-.197.66l-.856.463a.486.486 0 01-.659-.196l-1.463-2.71a.486.486 0 00-.89.078l-.69 2.068a.486.486 0 01-.307.307l-2.068.689a.486.486 0 00-.077.89l2.71 1.464a.486.486 0 01.196.659zm4.984-3.797a.486.486 0 01.66.196l4.724 8.744a.486.486 0 01-.657.658l-8.744-4.725a.486.486 0 01-.197-.66l.463-.856a.486.486 0 01.658-.196l3.007 1.624a.486.486 0 00.658-.658l-1.625-3.007a.486.486 0 01.197-.658z"/></symbol><symbol id="sprite-pencil" viewBox="0 0 24 24"><path fill="currentColor" d="M20.71 7.04c.39-.39.39-1.04 0-1.41l-2.34-2.34c-.37-.39-1.02-.39-1.41 0l-1.84 1.83 3.75 3.75M3 17.25V21h3.75L17.81 9.93l-3.75-3.75L3 17.25z"/></symbol><symbol id="sprite-search" viewBox="0 0 24 24"><path fill="currentColor" d="M9.5 3A6.5 6.5 0 0116 9.5c0 1.61-.59 3.09-1.56 4.23l.27.27h.79l5 5-1.5 1.5-5-5v-.79l-.27-.27A6.516 6.516 0 019.5 16 6.5 6.5 0 013 9.5 6.5 6.5 0 019.5 3m0 2C7 5 5 7 5 9.5S7 14 9.5 14 14 12 14 9.5 12 5 9.5 5z"/></symbol><symbol id="sprite-settings" viewBox="0 0 24 24"><path fill="currentColor" d="M12 15.5A3.5 3.5 0 018.5 12 3.5 3.5 0 0112 8.5a3.5 3.5 0 013.5 3.5 3.5 3.5 0 01-3.5 3.5m7.43-2.53c.04-.32.07-.64.07-.97 0-.33-.03-.66-.07-1l2.11-1.63c.19-.15.24-.42.12-.64l-2-3.46c-.12-.22-.39-.31-.61-.22l-2.49 1c-.52-.39-1.06-.73-1.69-.98l-.37-2.65A.506.506 0 0014 2h-4c-.25 0-.46.18-.5.42l-.37 2.65c-.63.25-1.17.59-1.69.98l-2.49-1c-.22-.09-.49 0-.61.22l-2 3.46c-.13.22-.07.49.12.64L4.57 11c-.04.34-.07.67-.07 1 0 .33.03.65.07.97l-2.11 1.66c-.19.15-.25.42-.12.64l2 3.46c.12.22.39.3.61.22l2.49-1.01c.52.4 1.06.74 1.69.99l.37 2.65c.04.24.25.42.5.42h4c.25 0 .46-.18.5-.42l.37-2.65c.63-.26 1.17-.59 1.69-.99l2.49 1.01c.22.08.49 0 .61-.22l2-3.46c.12-.22.07-.49-.12-.64l-2.11-1.66z"/></symbol><symbol id="sprite-share" viewBox="0 0 24 24"><path fill="currentColor" d="M18 16.08c-.76 0-1.44.3-1.96.77L8.91 12.7c.05-.23.09-.46.09-.7 0-.24-.04-.47-.09-.7l7.05-4.11c.54.5 1.25.81 2.04.81a3 3 0 003-3 3 3 0 00-3-3 3 3 0 00-3 3c0 .24.04.47.09.7L8.04 9.81C7.5 9.31 6.79 9 6 9a3 3 0 00-3 3 3 3 0 003 3c.79 0 1.5-.31 2.04-.81l7.12 4.15c-.05.21-.08.43-.08.66 0 1.61 1.31 2.91 2.92 2.91 1.61 0 2.92-1.3 2.92-2.91A2.92 2.92 0 0018 16.08z"/></symbol></svg>