<?xml version="1.0" encoding="UTF-8"?>
<!DOCTYPE svg PUBLIC "-//W3C//DTD SVG 1.1//EN" "http://www.w3.org/Graphics/SVG/1.1/DTD/svg11.dtd">
<svg xmlns="http://www.w3.org/2000/svg" xmlns:xlink="http://www.w3.org/1999/xlink" version="1.1" width="24" height="24" viewBox="0 0 24 24">
  <path fill="currentColor" stroke-width="2.56" d="m10.575 15.142a0.48632 0.48632 0 0 1 -0.65946 0.19648l-6.6606-3.6007a0.48632 0.48632 0 0 1 0.077809 -0.88902l5.4059-1.8033a0.48632 0.48632 0 0 0 0.30735 -0.30735l1.8033-5.406a0.48632 0.48632 0 0 1 0.88901 -0.077808l3.6006 6.6606a0.48632 0.48632 0 0 1 -0.19647 0.65946l-0.85594 0.46298a0.48632 0.48632 0 0 1 -0.65946 -0.19648l-1.4629-2.7098a0.48632 0.48632 0 0 0 -0.89096 0.077809l-0.68864 2.0678a0.48632 0.48632 0 0 1 -0.30735 0.30735l-2.0678 0.68864a0.48632 0.48632 0 0 0 -0.077806 0.89096l2.7098 1.4629a0.48632 0.48632 0 0 1 0.19647 0.65946zm4.9838-3.7973a0.48632 0.48632 0 0 1 0.65946 0.19648l4.7252 8.7442a0.48632 0.48632 0 0 1 -0.65751 0.65751l-8.7442-4.7253a0.48632 0.48632 0 0 1 -0.19648 -0.65946l0.46298-0.85594a0.48632 0.48632 0 0 1 0.65751 -0.19648l3.0075 1.6243a0.48632 0.48632 0 0 0 0.65751 -0.65751l-1.6243-3.0075a0.48632 0.48632 0 0 1 0.19648 -0.65751z"/>
</svg>
