<?xml version="1.0" encoding="UTF-8"?>
<svg width="6.641mm" height="10.643mm" version="1.1" viewBox="0 0 6.6410418 10.643426" xmlns="http://www.w3.org/2000/svg">
 <rect x="1.6745" y="1.1941" width="3.3404" height="3.8365" fill="#fff" stroke-width=".26458"/>
 <path d="m3.3322 0.14552c-1.7391 0-3.1866 1.5058-3.1866 3.1396 0 0.73501 0.41381 1.669 0.71279 2.314l2.4622 4.7286 2.4506-4.7286c0.29898-0.64505 0.72443-1.5322 0.72443-2.314 0-1.6338-1.4243-3.1396-3.1634-3.1396zm0 1.8931c0.68368 4e-3 1.238 0.56144 1.238 1.2462s-0.5543 1.2338-1.238 1.238c-0.68368-4e-3 -1.238-0.55298-1.238-1.238 0-0.68474 0.5543-1.2417 1.238-1.2462z" fill="#4caf50" stroke-opacity="0"/>
 <path d="m3.3287 0.43842c-1.5727 0-2.894 1.3809-2.894 2.8443 0 0.62415 0.38179 1.543 0.67813 2.1828l0.0082 8e-3 2.1995 4.2251 2.1828-4.2251 0.0082-8e-3c0.3003-0.6477 0.69453-1.5097 0.69453-2.1828 0-1.4653-1.3047-2.8443-2.8773-2.8443zm0 1.3147c0.8382 6e-3 1.5296 0.68818 1.5296 1.5296 0 0.84137-0.69136 1.5243-1.5296 1.5296-0.8382-5e-3 -1.5214-0.69056-1.5214-1.5296 0-0.83926 0.68316-1.5243 1.5214-1.5296z" fill="none" stroke="#fff" stroke-linecap="round" stroke-opacity=".122" stroke-width=".29104"/>
</svg>
