<?xml version="1.0" encoding="UTF-8"?>
<svg width="6.641mm" height="10.643mm" version="1.1" viewBox="0 0 6.6410418 10.64342" xmlns="http://www.w3.org/2000/svg">
 <rect x="1.6745" y="1.1941" width="3.3404" height="3.8365" fill="#fff" stroke-width=".26458"/>
 <path d="m3.3322 0.14552c-1.7391 0-3.1866 1.5057-3.1866 3.1395 0 0.73501 0.41381 1.669 0.71279 2.314l2.4622 4.7286 2.4506-4.7286c0.29898-0.64505 0.72443-1.5322 0.72443-2.314 0-1.6338-1.4243-3.1395-3.1634-3.1395zm0 1.8931c0.68368 0.0045 1.238 0.56145 1.238 1.2462 0 0.68474-0.5543 1.2338-1.238 1.238-0.68368-0.0045-1.238-0.55298-1.238-1.238 0-0.68474 0.5543-1.2417 1.238-1.2462z" fill="#fbc02d" stroke="#fdd835" stroke-linecap="round" stroke-width=".29104"/>
 <path d="m3.3287 0.43841c-1.5727 0-2.894 1.3809-2.894 2.8443 0 0.62415 0.38179 1.543 0.67813 2.1828l0.0082 0.0082 2.1995 4.2251 2.1828-4.2251 0.0082-0.0082c0.3003-0.6477 0.69453-1.5097 0.69453-2.1828 0-1.4653-1.3047-2.8443-2.8773-2.8443zm0 1.3147c0.8382 0.0056 1.5296 0.68818 1.5296 1.5296s-0.69136 1.5243-1.5296 1.5296c-0.8382-0.0053-1.5214-0.69056-1.5214-1.5296 0-0.83926 0.68315-1.5243 1.5214-1.5296z" fill="none" stroke="#fff" stroke-linecap="round" stroke-opacity=".122" stroke-width=".29104"/>
</svg>
