<?xml version="1.0" encoding="UTF-8"?>
<svg width="25" height="40" version="1.1" viewBox="0 0 6.64 10.64" xmlns="http://www.w3.org/2000/svg">
  <path
    d="M3.332.146C1.593.146.146 1.65.146 3.285c0 .735.413 1.669.712 2.314l2.463 4.729 2.45-4.729c.3-.645.725-1.532.725-2.314 0-1.634-1.425-3.14-3.164-3.14zm0 1.893c.684.004 1.238.561 1.238 1.246s-.554 1.234-1.238 1.238a1.24 1.24 0 0 1-1.238-1.238c0-.685.554-1.242 1.238-1.246z"
    fill="#ffeb3b"
    stroke="#ffee58"
    stroke-linecap="round"
    stroke-width=".3"/>
  <path
    d="M3.329.438C1.756.438.435 1.82.435 3.283c0 .624.381 1.543.678 2.183l.008.008 2.2 4.225 2.182-4.225.009-.008c.3-.648.694-1.51.694-2.183C6.206 1.817 4.901.438 3.33.438zm0 1.315c.838.006 1.53.688 1.53 1.53s-.692 1.524-1.53 1.53a1.534 1.534 0 0 1-1.522-1.53c0-.84.683-1.525 1.522-1.53z"
    fill="none"
    stroke="#fff"
    stroke-linecap="round"
    stroke-opacity=".2"
    stroke-width=".3"/>
</svg>
