<?xml version="1.0" encoding="UTF-8"?>
<svg width="6.641mm" height="10.643mm" version="1.1" viewBox="0 0 6.6410418 10.643129" xmlns="http://www.w3.org/2000/svg">
 <defs>
  <linearGradient id="path3873_9_" x1="135.47" x2="135.47" y1="-15.335" y2="22.229" gradientTransform="matrix(.26458 0 0 -.26458 16.32 82.968)" gradientUnits="userSpaceOnUse">
   <stop stop-color="#7CB928" offset="0"/>
   <stop stop-color="#A2C857" offset="1"/>
  </linearGradient>
  <linearGradient id="path3873_10_" x1="43.886" x2="43.886" y1="3.1758" y2="22.228" gradientTransform="matrix(.26458 0 0 -.26458 40.551 82.967)" gradientUnits="userSpaceOnUse">
   <stop stop-color="#74963A" offset="0"/>
   <stop stop-color="#89B63E" offset="1"/>
  </linearGradient>
 </defs>
 <g transform="translate(-48.84 -76.988)" stroke-linecap="round" stroke-width=".29104">
  <path id="path3873_4_" d="m52.173 77.133c-1.7388 0-3.1869 1.5057-3.1869 3.1393 0 0.73475 0.41381 1.6693 0.71252 2.3143l2.4625 4.7284 2.4506-4.7284c0.29924-0.64505 0.72443-1.5325 0.72443-2.3143 0-1.6335-1.4235-3.1393-3.1644-3.1393zm-0.31221 5.3099c-0.13785 0-0.2712-0.05689-0.36751-0.15981-0.0066-0.0071-0.6903-0.73898-1.0438-1.0573-0.20611-0.186-0.22252-0.50377-0.03678-0.71014 0.186-0.20664 0.50377-0.22278 0.71014-0.03678 0.16933 0.1524 0.39714 0.38047 0.60193 0.59055 0.32914-0.63447 0.88027-1.5875 1.5253-2.2609 0.19209-0.20055 0.51038-0.20717 0.71094-0.01508 0.20055 0.19182 0.20717 0.51012 0.01535 0.71067-0.90276 0.94245-1.6478 2.621-1.655 2.6382-0.06826 0.15452-0.20955 0.26458-0.37624 0.29316-0.0291 0.0048-0.05821 0.0074-0.08467 0.0074z" clip-rule="evenodd" fill="url(#path3873_9_)" fill-rule="evenodd" stroke="url(#path3873_10_)" connector-curvature="0" export-filename="C:\Users\dave.STK\Desktop\git\Leaflet\Leaflet\dist\images\marker-icon@2x.png" export-xdpi="180" export-ydpi="180" nodetypes="zscccszcscsc"/>
  <path id="path3792_6_" d="m52.17 77.426c-1.5724 0-2.894 1.3814-2.894 2.8443 0 0.62415 0.38179 1.543 0.67786 2.1828 0.0016 0.0032 0.0066 0.0056 0.0082 0.0082l2.1992 4.2251 2.1828-4.2251c0.0016-0.0032 0.0066-0.0053 0.0082-0.0082 0.3003-0.6477 0.69453-1.5097 0.69453-2.1828 0.0026-1.465-1.3044-2.8443-2.876-2.8443zm1.442 0.93742c-0.21537 0-0.42439 0.08943-0.57309 0.245-0.55298 0.57679-1.0356 1.3425-1.3854 1.9767-0.13282-0.13176-0.24553-0.23918-0.33681-0.322-0.14632-0.13176-0.33496-0.20399-0.53155-0.20399-0.22463 0-0.43947 0.09552-0.58949 0.26247-0.29289 0.32464-0.26723 0.82788 0.05794 1.1208 0.34078 0.30692 1.0186 1.0321 1.025 1.0388 0.15055 0.16113 0.36195 0.25321 0.58102 0.25321 0.04392 0 0.08837-0.0037 0.13176-0.01085 0.26511-0.04551 0.4871-0.21802 0.59478-0.46302 0.0077-0.01693 0.74216-1.6592 1.5989-2.5538 0.14684-0.15293 0.22516-0.35454 0.22066-0.56647-0.0048-0.21193-0.09155-0.40931-0.24474-0.55615-0.15081-0.14208-0.34396-0.22066-0.55033-0.22066z" fill="none" stroke="#fff" stroke-opacity=".1216" export-filename="C:\Users\dave.STK\Desktop\git\Leaflet\Leaflet\dist\images\marker-icon@2x.png" export-xdpi="180" export-ydpi="180" original="M 416.53125 503.625 C 409.95868 503.625 404.5 509.29393 404.5 515.46875 C 404.5 518.24668 406.05726 521.78106 407.1875 524.21875 L 416.5 542.09375 L 425.75 524.21875 C 426.88024 521.78106 428.5 518.42346 428.5 515.46875 C 428.5 509.29393 423.10382 503.625 416.53125 503.625 z M 416.53125 510.78125 C 419.11574 510.79795 421.21875 512.88037 421.21875 515.46875 C 421.21875 518.05715 419.11574 520.13969 416.53125 520.15625 C 413.94676 520.13975 411.875 518.05715 411.875 515.46875 C 411.875 512.88038 413.94676 510.79802 416.53125 510.78125 z " radius="-1.09294" type="inkscape:offset"/>
 </g>
</svg>
