<?xml version="1.0" encoding="UTF-8" standalone="no"?>
<svg
   xmlns:dc="http://purl.org/dc/elements/1.1/"
   xmlns:cc="http://creativecommons.org/ns#"
   xmlns:rdf="http://www.w3.org/1999/02/22-rdf-syntax-ns#"
   xmlns:svg="http://www.w3.org/2000/svg"
   xmlns="http://www.w3.org/2000/svg"
   id="svg4497"
   version="1.1"
   viewBox="0 0 67.733332 67.733335"
   height="256"
   width="256">
  <defs
     id="defs4491" />
  <metadata
     id="metadata4494">
    <rdf:RDF>
      <cc:Work
         rdf:about="">
        <dc:format>image/svg+xml</dc:format>
        <dc:type
           rdf:resource="http://purl.org/dc/dcmitype/StillImage" />
        <dc:title></dc:title>
      </cc:Work>
    </rdf:RDF>
  </metadata>
  <g
     transform="translate(0,-229.26665)"
     id="layer1">
    <path
       style="fill:none;stroke:#ffffff;stroke-width:1.38250864;stroke-linecap:round;stroke-opacity:0.1"
       d="m 33.872085,241.59646 c -7.24894,0 -13.336617,6.36876 -13.336617,13.11081 0,2.87563 1.755783,7.1107 3.12448,10.06004 l 0.03708,0.0371 10.138388,19.47034 10.055447,-19.47034 0.04172,-0.0371 c 1.382548,-2.98623 3.198231,-6.95864 3.198231,-10.06004 0,-6.75585 -6.01391,-13.11081 -13.253677,-13.11081 z m 0,6.06002 c 3.861825,0.0278 7.050786,3.17053 7.050786,7.05079 0,3.88021 -3.188961,7.02313 -7.050786,7.05078 a 7.0692283,7.0692283 0 0 1 -7.013956,-7.05078 c 0,-3.87104 3.147549,-7.02776 7.013956,-7.05079 z"
       id="path4" />
    <path
       style="fill:#ffeb3b;stroke:#ffee58;stroke-width:1.00213873;stroke-linecap:round"
       d="m 14.804846,247.03315 c -5.8091032,0 -10.6427741,5.02406 -10.6427741,10.48571 0,2.45521 1.3796117,5.57522 2.3784222,7.7298 l 8.2276009,15.79708 8.184177,-15.79708 c 1.002134,-2.15458 2.421839,-5.11758 2.421839,-7.7298 0,-5.45832 -4.760169,-10.48906 -10.569265,-10.48906 z m 0,6.32347 c 2.284887,0.0134 4.135511,1.87402 4.135511,4.16224 0,2.28822 -1.850624,4.12213 -4.135511,4.13546 a 4.1421735,4.1421735 0 0 1 -4.135518,-4.13546 c 0,-2.28822 1.850624,-4.14888 4.135518,-4.16224 z"
       id="path2-1" />
    <path
       style="fill:none;stroke:#ffffff;stroke-width:1.00213873;stroke-linecap:round;stroke-opacity:0.23529412"
       d="m 14.794821,248.00855 c -5.2545766,0 -9.6673535,4.61651 -9.6673535,9.50362 0,2.08446 1.2727286,5.15433 2.2648446,7.29222 l 0.026871,0.0269 7.3490619,14.11346 7.288931,-14.11346 0.02986,-0.0269 c 1.002141,-2.16462 2.318282,-5.0441 2.318282,-7.29222 0,-4.8971 -4.359313,-9.50362 -9.607212,-9.50362 z m 0,4.39272 c 2.799321,0.0201 5.110936,2.29822 5.110936,5.1109 0,2.81265 -2.311615,5.09086 -5.110936,5.11091 a 5.1242691,5.1242691 0 0 1 -5.0842104,-5.11091 c 0,-2.806 2.2815464,-5.09421 5.0842104,-5.1109 z"
       id="path4-5" />
    <path
       style="fill:#f44336;stroke:#ef5350;stroke-width:1.02285242;stroke-linecap:round"
       d="m 52.916667,246.33971 c -5.929176,0 -10.862747,5.12791 -10.862747,10.70244 0,2.50598 1.408132,5.69047 2.427556,7.88959 l 8.39769,16.12358 8.353328,-16.12358 c 1.022844,-2.19912 2.4719,-5.22337 2.4719,-7.88959 0,-5.57114 -4.858556,-10.70586 -10.787727,-10.70586 z m 0,6.45418 c 2.332093,0.0137 4.220969,1.91275 4.220969,4.24826 0,2.33551 -1.888876,4.20734 -4.220969,4.22095 a 4.2277898,4.2277898 0 0 1 -4.221007,-4.22095 c 0,-2.33551 1.88888,-4.23462 4.221007,-4.24826 z"
       id="path2-4" />
    <path
       style="fill:none;stroke:#ffffff;stroke-width:1.02285242;stroke-linecap:round;stroke-opacity:0.11764706"
       d="m 52.906418,247.33528 c -5.363176,0 -9.86715,4.71193 -9.86715,9.70004 0,2.12755 1.299025,5.26087 2.311633,7.44296 l 0.02743,0.0273 7.500988,14.40518 7.439584,-14.40518 0.03088,-0.0273 c 1.022839,-2.20937 2.366179,-5.14838 2.366179,-7.44296 0,-4.99832 -4.449412,-9.70004 -9.805769,-9.70004 z m 0,4.48351 c 2.857193,0.0205 5.216566,2.34572 5.216566,5.21653 0,2.87079 -2.359373,5.19608 -5.216566,5.21656 a 5.2301852,5.2301852 0 0 1 -5.189288,-5.21656 c 0,-2.86398 2.328701,-5.19949 5.189288,-5.21653 z"
       id="path4-6" />
    <path
       style="fill:#4caf50;stroke:#66bb6a;stroke-width:1.38250864;stroke-linecap:round"
       d="m 33.885891,240.25085 c -8.013947,0 -14.682234,6.93098 -14.682234,14.46563 0,3.38714 1.903253,7.69136 3.28117,10.66373 l 11.350382,21.79297 11.290477,-21.79297 c 1.382497,-2.97237 3.34107,-7.06 3.34107,-10.66373 0,-7.53006 -6.566914,-14.47026 -14.580865,-14.47026 z m 0,8.7236 c 3.152139,0.0185 5.705171,2.58532 5.705171,5.74203 0,3.15673 -2.553032,5.68674 -5.705171,5.70512 a 5.7143689,5.7143689 0 0 1 -5.705121,-5.70512 c 0,-3.15671 2.553039,-5.7236 5.705121,-5.74203 z"
       id="path2" />
  </g>
</svg>
