<?xml version="1.0" encoding="UTF-8" standalone="no"?>
<svg
   xmlns:dc="http://purl.org/dc/elements/1.1/"
   xmlns:cc="http://creativecommons.org/ns#"
   xmlns:rdf="http://www.w3.org/1999/02/22-rdf-syntax-ns#"
   xmlns:svg="http://www.w3.org/2000/svg"
   xmlns="http://www.w3.org/2000/svg"
   version="1.1"
   viewBox="0 0 67.733332 67.733335"
   height="256"
   width="256">
  <g
     id="g859"
     transform="matrix(3.200484,0,0,3.200484,-237.64154,-882.77693)">
    <rect
       y="283.1008"
       x="90.057579"
       height="2.6458333"
       width="2.6458333"
       fill="#eeeeee" />
    <path
       d="m 91.392137,281.24923 c -1.738833,0 -3.18614,1.50288 -3.18614,3.13358 0,0.73361 0.413743,1.66581 0.712675,2.30964 l 2.461825,4.71964 2.450184,-4.71964 c 0.298933,-0.64383 0.724316,-1.52929 0.724316,-2.30964 0,-1.6307 -1.424028,-3.13358 -3.16286,-3.13358 z m 0,1.88949 c 0.683575,0.004 1.23779,0.56038 1.23779,1.24382 0,0.68344 -0.554215,1.23141 -1.23779,1.23563 -0.683576,-0.004 -1.237791,-0.55193 -1.237791,-1.23563 0,-0.68344 0.554215,-1.23933 1.237791,-1.24382 z"
       fill="#e53935"
       stroke="#ea6361"
       stroke-linecap="round"
       stroke-width="0.264583" />
    <path
       d="m 91.388698,281.54157 c -1.572436,0 -2.893557,1.37823 -2.893557,2.83886 0,0.62296 0.381734,1.54011 0.67802,2.17866 l 0.0082,0.008 2.199135,4.21709 2.182469,-4.21709 0.0082,-0.008 c 0.300255,-0.64647 0.694422,-1.50684 0.694422,-2.17866 0,-1.46248 -1.304455,-2.83886 -2.876891,-2.83886 z m 0,1.31221 c 0.838068,0.006 1.529315,0.68687 1.529315,1.52665 0,0.83977 -0.691247,1.52136 -1.529315,1.52665 -0.838068,-0.005 -1.521115,-0.68925 -1.521115,-1.52665 0,-0.83766 0.683047,-1.52137 1.521115,-1.52665 z"
       fill="none"
       stroke="#ffffff"
       stroke-linecap="round"
       stroke-opacity="0.1"
       stroke-width="0.3175" />
  </g>
  <g
     id="g904"
     transform="matrix(3.200484,0,0,3.200484,-215.68614,-1050.4163)">
    <rect
       y="335.48019"
       x="70.103523"
       height="2.6458333"
       width="2.6458333"
       fill="#eeeeee" />
    <path
       d="m 71.438083,333.62862 c -1.738832,0 -3.18614,1.50288 -3.18614,3.13358 0,0.73361 0.413743,1.66581 0.712675,2.30964 l 2.461825,4.71964 2.450185,-4.71964 c 0.298932,-0.64383 0.724315,-1.52929 0.724315,-2.30964 0,-1.6307 -1.424028,-3.13358 -3.16286,-3.13358 z m 0,1.88949 c 0.683575,0.004 1.23779,0.56038 1.23779,1.24382 0,0.68344 -0.554215,1.23141 -1.23779,1.23563 -0.683576,-0.004 -1.237791,-0.55193 -1.237791,-1.23563 0,-0.68344 0.554215,-1.23933 1.237791,-1.24382 z"
       fill="#afb42b"
       stroke="#ccd142"
       stroke-linecap="round"
       stroke-width="0.264583" />
    <path
       d="m 71.434644,333.92096 c -1.572436,0 -2.893557,1.37823 -2.893557,2.83886 0,0.62296 0.381734,1.54011 0.678021,2.17866 l 0.0082,0.008 2.199135,4.21709 2.182468,-4.21709 0.0082,-0.008 c 0.300255,-0.64647 0.694422,-1.50684 0.694422,-2.17866 0,-1.46248 -1.304455,-2.83886 -2.876889,-2.83886 z m 0,1.31221 c 0.838068,0.006 1.529315,0.68687 1.529315,1.52665 0,0.83977 -0.691247,1.52136 -1.529315,1.52665 -0.838068,-0.005 -1.521115,-0.68925 -1.521115,-1.52665 0,-0.83766 0.683047,-1.52137 1.521115,-1.52665 z"
       fill="none"
       stroke="#ffffff"
       stroke-linecap="round"
       stroke-opacity="0.1"
       stroke-width="0.3175" />
  </g>
  <g
     id="g889"
     transform="matrix(4.8007268,0,0,4.8007268,-414.62325,-1384.6416)">
    <rect
       y="292.17084"
       x="92.098335"
       height="2.6458333"
       width="2.6458333"
       fill="#eeeeee" />
    <path
       d="m 93.432892,290.31925 c -1.738832,0 -3.186139,1.50288 -3.186139,3.13358 0,0.73361 0.413743,1.66581 0.712675,2.30964 l 2.461824,4.71964 2.450185,-4.71964 c 0.298932,-0.64383 0.724315,-1.52929 0.724315,-2.30964 0,-1.6307 -1.424028,-3.13358 -3.16286,-3.13358 z m 0,1.88949 c 0.683576,0.004 1.23779,0.56038 1.23779,1.24382 0,0.68344 -0.554214,1.23141 -1.23779,1.23563 -0.683575,-0.004 -1.23779,-0.55193 -1.23779,-1.23563 0,-0.68344 0.554215,-1.23933 1.23779,-1.24382 z"
       fill="#2e7d32"
       stroke="#3da442"
       stroke-linecap="round"
       stroke-width="0.264583" />
    <path
       d="m 93.429453,290.61159 c -1.572435,0 -2.893556,1.37823 -2.893556,2.83886 0,0.62296 0.381733,1.54011 0.67802,2.17866 l 0.0082,0.008 2.199135,4.21709 2.182468,-4.21709 0.0082,-0.008 c 0.300255,-0.64647 0.694422,-1.50684 0.694422,-2.17866 0,-1.46248 -1.304455,-2.83886 -2.876889,-2.83886 z m 0,1.31221 c 0.838068,0.006 1.529316,0.68687 1.529316,1.52665 0,0.83977 -0.691248,1.52136 -1.529316,1.52665 -0.838068,-0.005 -1.521114,-0.68925 -1.521114,-1.52665 0,-0.83766 0.683046,-1.52137 1.521114,-1.52665 z"
       fill="none"
       stroke="#ffffff"
       stroke-linecap="round"
       stroke-opacity="0.1"
       stroke-width="0.3175" />
  </g>
</svg>
