<?xml version="1.0" encoding="UTF-8" standalone="no"?>
<svg
   xmlns:dc="http://purl.org/dc/elements/1.1/"
   xmlns:cc="http://creativecommons.org/ns#"
   xmlns:rdf="http://www.w3.org/1999/02/22-rdf-syntax-ns#"
   xmlns:svg="http://www.w3.org/2000/svg"
   xmlns="http://www.w3.org/2000/svg"
   version="1.1"
   viewBox="0 0 256 256"
   height="256"
   width="256"
   id="svg23">
  <metadata
     id="metadata29">
    <rdf:RDF>
      <cc:Work
         rdf:about="">
        <dc:format>image/svg+xml</dc:format>
        <dc:type
           rdf:resource="http://purl.org/dc/dcmitype/StillImage" />
        <dc:title></dc:title>
      </cc:Work>
    </rdf:RDF>
  </metadata>
  <defs
     id="defs27" />
  <g
     id="g886"
     transform="matrix(12.09632,0,0,12.09632,86.559497,-607.14921)">
    <rect
       y="57.467621"
       x="-4.4692864"
       height="2.6458333"
       width="2.6458333"
       fill="#eeeeee"
       id="rect2-2"
       style="stroke-width:0.264583" />
    <path
       d="m -3.1347301,55.616048 c -1.7388323,0 -3.1861396,1.502879 -3.1861396,3.133573 0,0.733614 0.4137431,1.665817 0.7126752,2.309644 l 2.4618245,4.719639 2.45018457,-4.719639 c 0.29893225,-0.643827 0.72431505,-1.529287 0.72431505,-2.309644 0,-1.630694 -1.42402762,-3.133573 -3.16285972,-3.133573 z m 0,1.889493 c 0.6835756,0.0045 1.2377901,0.560377 1.2377901,1.243816 0,0.683439 -0.5542145,1.231405 -1.2377901,1.23563 -0.6835756,-0.0045 -1.2377904,-0.551926 -1.2377904,-1.23563 0,-0.683439 0.5542148,-1.239327 1.2377904,-1.243816 z"
       fill="#afb42b"
       stroke="#9ca126"
       stroke-linecap="round"
       stroke-width="0.264583"
       id="path4-1" />
    <path
       d="m -3.1381689,55.908384 c -1.5724358,0 -2.8935568,1.378234 -2.8935568,2.838861 0,0.622964 0.3817336,1.540114 0.6780203,2.17866 l 0.0082,0.0082 2.199135,4.217094 2.18246827,-4.217094 0.0082,-0.0082 c 0.3002578,-0.646468 0.69442475,-1.506841 0.69442475,-2.17866 0,-1.462475 -1.30445482,-2.838861 -2.87689022,-2.838861 z m 0,1.312214 c 0.8380677,0.0055 1.5293152,0.686872 1.5293152,1.526647 0,0.839774 -0.6912475,1.521365 -1.5293152,1.526647 -0.8380682,-0.0053 -1.5211147,-0.68925 -1.5211147,-1.526647 0,-0.837662 0.6830465,-1.521365 1.5211147,-1.526647 z"
       fill="none"
       stroke="#ffffff"
       stroke-linecap="round"
       stroke-opacity="0.1"
       stroke-width="0.3175"
       id="path6-5" />
  </g>
  <g
     id="g916"
     transform="matrix(3.2004845,0,0,3.2004845,-856.16278,-466.93004)">
    <rect
       y="173.3886"
       x="327.3443"
       height="10"
       width="10"
       fill="#eeeeee"
       id="rect2-9" />
    <path
       d="m 332.38829,166.39052 c -6.57196,0 -12.0421,5.68017 -12.0421,11.84342 0,2.77272 1.56375,6.296 2.69358,8.72937 l 9.30453,17.838 9.26054,-17.838 c 1.12982,-2.43337 2.73757,-5.77999 2.73757,-8.72937 0,-6.16325 -5.38215,-11.84342 -11.95412,-11.84342 z m 0,7.14139 c 2.5836,0.017 4.67826,2.11796 4.67826,4.70104 0,2.58307 -2.09466,4.65413 -4.67826,4.6701 -2.58359,-0.017 -4.67826,-2.08603 -4.67826,-4.6701 0,-2.58308 2.09467,-4.68407 4.67826,-4.70104 z"
       fill="#e53935"
       stroke="#e2221d"
       stroke-linecap="round"
       stroke-width="1"
       id="path4-9" />
    <path
       d="m 332.3753,167.49541 c -5.94307,0 -10.93628,5.20907 -10.93628,10.72955 0,2.35451 1.44277,5.82091 2.56259,8.23431 l 0.031,0.0309 8.31169,15.93862 8.2487,-15.93862 0.031,-0.0309 c 1.13482,-2.44334 2.62459,-5.69515 2.62459,-8.23431 0,-5.52746 -4.93023,-10.72955 -10.87329,-10.72955 z m 0,4.95955 c 3.1675,0.021 5.78008,2.59605 5.78008,5.77 0,3.17395 -2.61258,5.75004 -5.78008,5.77001 -3.16751,-0.02 -5.7491,-2.60504 -5.7491,-5.77001 0,-3.16596 2.58159,-5.75004 5.7491,-5.77 z"
       fill="none"
       stroke="#ffffff"
       stroke-linecap="round"
       stroke-opacity="0.1"
       stroke-width="1.2"
       id="path6-4" />
  </g>
  <g
     id="g901"
     transform="matrix(18.144481,0,0,18.144481,-427.86903,-1287.2125)">
    <rect
       y="74.689857"
       x="29.312792"
       height="2.6458333"
       width="2.6458333"
       fill="#eeeeee"
       id="rect2-1"
       style="stroke-width:0.264583" />
    <path
       d="m 30.647348,72.838284 c -1.738832,0 -3.186139,1.502879 -3.186139,3.133573 0,0.733614 0.413743,1.665817 0.712675,2.309644 l 2.461824,4.719639 2.450185,-4.719639 c 0.298932,-0.643827 0.724315,-1.529287 0.724315,-2.309644 0,-1.630694 -1.424028,-3.133573 -3.16286,-3.133573 z m 0,1.889493 c 0.683576,0.0045 1.23779,0.560377 1.23779,1.243816 0,0.68344 -0.554214,1.231405 -1.23779,1.235631 -0.683575,-0.0045 -1.23779,-0.551927 -1.23779,-1.235631 0,-0.683439 0.554215,-1.239327 1.23779,-1.243816 z"
       fill="#2e7d32"
       stroke="#286c2b"
       stroke-linecap="round"
       stroke-width="0.264583"
       id="path4-19" />
    <path
       d="m 30.643909,73.13062 c -1.572435,0 -2.893556,1.378234 -2.893556,2.838861 0,0.622964 0.381733,1.540114 0.67802,2.17866 l 0.0082,0.0082 2.199135,4.217094 2.182468,-4.217094 0.0082,-0.0082 c 0.300258,-0.646468 0.694425,-1.506841 0.694425,-2.17866 0,-1.462475 -1.304455,-2.838861 -2.87689,-2.838861 z m 0,1.312214 c 0.838068,0.0055 1.529316,0.686872 1.529316,1.526647 0,0.839774 -0.691248,1.521365 -1.529316,1.526647 -0.838068,-0.0053 -1.521114,-0.68925 -1.521114,-1.526647 0,-0.837662 0.683046,-1.521365 1.521114,-1.526647 z"
       fill="none"
       stroke="#ffffff"
       stroke-linecap="round"
       stroke-opacity="0.1"
       stroke-width="0.3175"
       id="path6-7" />
  </g>
</svg>
