<?xml version="1.0" encoding="UTF-8" standalone="no"?>
<svg
   xmlns:dc="http://purl.org/dc/elements/1.1/"
   xmlns:cc="http://creativecommons.org/ns#"
   xmlns:rdf="http://www.w3.org/1999/02/22-rdf-syntax-ns#"
   xmlns:svg="http://www.w3.org/2000/svg"
   xmlns="http://www.w3.org/2000/svg"
   id="svg8"
   version="1.1"
   viewBox="0 0 338.66666 169.33334"
   height="640"
   width="1280">
  <defs
     id="defs2" />
  <metadata
     id="metadata5">
    <rdf:RDF>
      <cc:Work
         rdf:about="">
        <dc:format>image/svg+xml</dc:format>
        <dc:type
           rdf:resource="http://purl.org/dc/dcmitype/StillImage" />
        <dc:title></dc:title>
      </cc:Work>
    </rdf:RDF>
  </metadata>
  <g
     transform="translate(0,-127.66665)"
     id="layer1">
    <text
       id="text4489"
       y="181.45276"
       x="29.623888"
       style="font-style:normal;font-variant:normal;font-weight:normal;font-stretch:normal;font-size:42.33333588px;line-height:63.50000381px;font-family:Montserrat;-inkscape-font-specification:Montserrat;letter-spacing:0px;word-spacing:0px;fill:#37474f;fill-opacity:1;stroke:none;stroke-width:0.52916667;stroke-opacity:1;stroke-miterlimit:4;stroke-dasharray:none;"
       xml:space="preserve"><tspan
         style="font-style:normal;font-variant:normal;font-weight:normal;font-stretch:normal;font-size:42.33333588px;line-height:63.50000381px;font-family:Montserrat;-inkscape-font-specification:Montserrat;fill:#37474f;fill-opacity:1;stroke-width:0.52916667;stroke:none;stroke-opacity:1;stroke-miterlimit:4;stroke-dasharray:none;"
         y="181.45276"
         x="29.623888"
         id="tspan4487">NotesReview</tspan></text>
    <path
       id="path4"
       d="m 167.45849,202.96682 c -12.84264,0 -23.62792,11.28326 -23.62792,23.22786 0,5.09463 3.11065,12.59771 5.53551,17.82294 l 0.0657,0.0657 17.96175,34.49478 17.81481,-34.49478 0.0739,-0.0657 c 2.4494,-5.29057 5.66617,-12.32832 5.66617,-17.82294 0,-11.96906 -10.65459,-23.22786 -23.48098,-23.22786 z m 0,10.73627 c 6.84183,0.0493 12.49158,5.61709 12.49158,12.49159 0,6.87441 -5.64975,12.44257 -12.49158,12.49158 a 12.524252,12.524252 0 0 1 -12.42633,-12.49158 c 0,-6.85817 5.57638,-12.45079 12.42633,-12.49159 z"
       style="fill:none;stroke:#ffffff;stroke-width:2.449332;stroke-linecap:round;stroke-opacity:0.1" />
    <path
       id="path2-1"
       d="m 133.67787,212.59876 c -10.29174,0 -18.85535,8.90091 -18.85535,18.57708 0,4.34981 2.4442,9.8774 4.21375,13.69458 l 14.57649,27.98699 14.49956,-27.98699 c 1.77544,-3.81718 4.29067,-9.06661 4.29067,-13.69458 0,-9.67028 -8.43339,-18.58303 -18.72512,-18.58303 z m 0,11.20303 c 4.04804,0.0238 7.32671,3.32013 7.32671,7.37405 0,4.05393 -3.27867,7.30302 -7.32671,7.32664 a 7.3385131,7.3385131 0 0 1 -7.32672,-7.32664 c 0,-4.05392 3.27867,-7.35038 7.32672,-7.37405 z"
       style="fill:#ffeb3b;stroke:#ffee58;stroke-width:1.77544677;stroke-linecap:round" />
    <path
       id="path4-5"
       d="m 133.66011,214.32683 c -9.30931,0 -17.12724,8.1789 -17.12724,16.83717 0,3.69295 2.25484,9.1317 4.01253,12.91932 l 0.0476,0.0476 13.02002,25.00422 12.91349,-25.00422 0.0529,-0.0476 c 1.77545,-3.83498 4.1072,-8.93643 4.1072,-12.91932 0,-8.676 -7.72321,-16.83717 -17.02069,-16.83717 z m 0,7.7824 c 4.95944,0.0357 9.05483,4.07166 9.05483,9.05477 0,4.98306 -4.09539,9.01925 -9.05483,9.05477 a 9.0784505,9.0784505 0 0 1 -9.00748,-9.05477 c 0,-4.97127 4.04212,-9.0252 9.00748,-9.05477 z"
       style="fill:none;stroke:#ffffff;stroke-width:1.77544677;stroke-linecap:round;stroke-opacity:0.23529412" />
    <path
       id="path2-4"
       d="m 201.19897,211.37023 c -10.50447,0 -19.24507,9.08489 -19.24507,18.96105 0,4.43973 2.49473,10.08156 4.3008,13.97765 l 14.87783,28.56546 14.79924,-28.56546 c 1.81213,-3.89609 4.37936,-9.25403 4.37936,-13.97765 0,-9.87015 -8.6077,-18.96712 -19.11216,-18.96712 z m 0,11.43459 c 4.13167,0.0243 7.47811,3.38875 7.47811,7.52646 0,4.13773 -3.34644,7.45397 -7.47811,7.47808 a 7.490196,7.490196 0 0 1 -7.47818,-7.47808 c 0,-4.13771 3.34645,-7.5023 7.47818,-7.52646 z"
       style="fill:#f44336;stroke:#ef5350;stroke-width:1.81214428;stroke-linecap:round" />
    <path
       id="path4-6"
       d="m 201.18081,213.13403 c -9.50171,0 -17.48121,8.34794 -17.48121,17.18517 0,3.76928 2.30143,9.32045 4.09542,13.18635 l 0.0486,0.0486 13.28918,25.52105 13.1804,-25.52105 0.0547,-0.0486 c 1.81212,-3.91424 4.19206,-9.12114 4.19206,-13.18635 0,-8.85533 -7.88284,-17.18517 -17.37247,-17.18517 z m 0,7.94325 c 5.06197,0.0364 9.24197,4.15581 9.24197,9.24192 0,5.08605 -4.18,9.20567 -9.24197,9.24193 a 9.2660973,9.2660973 0 0 1 -9.19364,-9.24193 c 0,-5.07402 4.12566,-9.21174 9.19364,-9.24192 z"
       style="fill:none;stroke:#ffffff;stroke-width:1.81214428;stroke-linecap:round;stroke-opacity:0.11764706" />
    <path
       id="path2"
       d="m 167.48295,200.58285 c -14.19797,0 -26.01189,12.27932 -26.01189,25.62816 0,6.00083 3.37191,13.62645 5.81311,18.89247 l 20.10899,38.60968 20.00286,-38.60968 c 2.44931,-5.26602 5.91923,-12.50792 5.91923,-18.89247 0,-13.34071 -11.63432,-25.63637 -25.8323,-25.63637 z m 0,15.45521 c 5.58451,0.0328 10.10761,4.58032 10.10761,10.17295 0,5.59262 -4.5231,10.07494 -10.10761,10.10752 a 10.123905,10.123905 0 0 1 -10.10752,-10.10752 c 0,-5.59263 4.52311,-10.14028 10.10752,-10.17295 z"
       style="fill:#4caf50;stroke:#66bb6a;stroke-width:2.449332;stroke-linecap:round" />
  </g>
</svg>
