<?xml version="1.0" encoding="UTF-8"?>
<svg width="6.6408mm" height="10.643mm" version="1.1" viewBox="0 0 6.6407719 10.643129" xmlns="http://www.w3.org/2000/svg">
 <defs>
  <linearGradient id="path3873_7_" x1="56.017" x2="56.017" y1="-15.335" y2="22.229" gradientTransform="matrix(.26458 0 0 -.26458 106.13 71.628)" gradientUnits="userSpaceOnUse">
   <stop stop-color="#C72118" offset="0"/>
   <stop stop-color="#D2534F" offset="1"/>
  </linearGradient>
  <linearGradient id="path3873_8_" x1="-35.564" x2="-35.564" y1="3.1758" y2="22.228" gradientTransform="matrix(.26458 0 0 -.26458 130.36 71.628)" gradientUnits="userSpaceOnUse">
   <stop stop-color="#983A38" offset="0"/>
   <stop stop-color="#B83D3B" offset="1"/>
  </linearGradient>
 </defs>
 <g transform="translate(-117.63 -65.649)" stroke-linecap="round" stroke-width=".29104">
  <path id="path3873_3_" d="m120.96 65.794c-1.7388 0-3.1866 1.5057-3.1866 3.1393 0 0.73475 0.41354 1.6693 0.71252 2.3143l2.4625 4.7284 2.4506-4.7284c0.29898-0.64505 0.72416-1.5325 0.72416-2.3143 2.7e-4 -1.6335-1.424-3.1393-3.1631-3.1393zm0.76067 3.4025 0.93848-0.93848c0.20664-0.20664 0.20664-0.5416 0-0.74824-0.2069-0.20664-0.54213-0.20664-0.74851 0l-0.93847 0.93848-0.93848-0.93848c-0.20611-0.20664-0.5416-0.20664-0.74824 0-0.20664 0.20664-0.20664 0.5416 0 0.74824l0.93848 0.93848-0.93848 0.93821c-0.20664 0.20638-0.20664 0.54187 0 0.74824 0.10345 0.10345 0.23865 0.15505 0.37412 0.15505s0.27093-0.05159 0.37412-0.15505l0.93848-0.93821 0.93847 0.93821c0.10319 0.10345 0.23866 0.15505 0.37413 0.15505 0.13546 0 0.27066-0.05159 0.37438-0.15505 0.20664-0.20638 0.20664-0.54187 0-0.74824z" clip-rule="evenodd" fill="url(#path3873_7_)" fill-rule="evenodd" stroke="url(#path3873_8_)" connector-curvature="0" export-filename="C:\Users\dave.STK\Desktop\git\Leaflet\Leaflet\dist\images\marker-icon@2x.png" export-xdpi="180" export-ydpi="180" nodetypes="zscccszcscsc"/>
  <path id="path3792_3_" d="m120.96 66.087c-1.5727 0-2.894 1.3814-2.894 2.8443 0 0.62415 0.38153 1.543 0.67786 2.1828 1e-3 0.0032 7e-3 0.0056 8e-3 0.0082l2.1995 4.2251 2.1828-4.2251c1e-3 -0.0032 7e-3 -0.0053 8e-3 -0.0082 0.30057-0.6477 0.69453-1.5097 0.69453-2.1828 5.3e-4 -1.465-1.3041-2.8443-2.8766-2.8443zm1.3282 0.98055c-0.21934 0-0.42519 0.08546-0.58023 0.24051l-0.73237 0.73263-0.73263-0.7329c-0.15478-0.15478-0.36063-0.24024-0.57997-0.24024-0.21907 0-0.42518 0.08546-0.5797 0.24051-0.15504 0.15478-0.24024 0.36063-0.24024 0.5797s0.0852 0.42492 0.24024 0.57997l0.73263 0.73237-0.73263 0.7329c-0.15504 0.15452-0.24024 0.36063-0.24024 0.5797s0.0852 0.42519 0.24024 0.5797c0.15478 0.15505 0.36063 0.24024 0.5797 0.24024 0.21934 0 0.42519-0.0852 0.58024-0.24024l0.73236-0.7321 0.73263 0.7321c0.15478 0.15505 0.36063 0.24024 0.57997 0.24024 0.21908 0 0.42519-0.0852 0.5797-0.24024 0.15505-0.15425 0.24024-0.36063 0.24024-0.5797s-0.0852-0.42518-0.24024-0.5797l-0.73263-0.7329 0.73263-0.73237c0.15505-0.15505 0.24024-0.36089 0.24024-0.57997s-0.0852-0.42492-0.24024-0.57997c-0.15425-0.15452-0.36062-0.24024-0.5797-0.24024z" fill="none" stroke="#fff" stroke-opacity=".1216" export-filename="C:\Users\dave.STK\Desktop\git\Leaflet\Leaflet\dist\images\marker-icon@2x.png" export-xdpi="180" export-ydpi="180" original="M 416.53125 503.625 C 409.95868 503.625 404.5 509.29393 404.5 515.46875 C 404.5 518.24668 406.05726 521.78106 407.1875 524.21875 L 416.5 542.09375 L 425.75 524.21875 C 426.88024 521.78106 428.5 518.42346 428.5 515.46875 C 428.5 509.29393 423.10382 503.625 416.53125 503.625 z M 416.53125 510.78125 C 419.11574 510.79795 421.21875 512.88037 421.21875 515.46875 C 421.21875 518.05715 419.11574 520.13969 416.53125 520.15625 C 413.94676 520.13975 411.875 518.05715 411.875 515.46875 C 411.875 512.88038 413.94676 510.79802 416.53125 510.78125 z " radius="-1.09294" type="inkscape:offset"/>
 </g>
</svg>
