<?xml version="1.0" encoding="UTF-8"?>
<svg version="1.1" viewBox="0 0 24 30" xmlns="http://www.w3.org/2000/svg">
  <g fill="#1a171b">
    <path d="M7.997 21.357c-1.015 0-1.81-.129-2.39-.385-.578-.257-.992-.607-1.242-1.051-.25-.444-.372-.954-.365-1.53a8.29 8.29 0 01.247-1.842L6.968 5.5 10.29 5 7.31 16.985a3.64 3.64 0 00-.096.687c-.008.208.032.392.118.552.085.16.232.288.439.385.207.097.496.16.868.187l-.643 2.56M19.997 14.47c0 1.013-.171 1.94-.514 2.779a6.585 6.585 0 01-1.423 2.174 6.387 6.387 0 01-2.186 1.426c-.85.34-1.775.51-2.775.51-.486 0-.972-.042-1.457-.125L10.678 25H7.506l3.557-14.4a19.202 19.202 0 011.961-.447 13.581 13.581 0 012.39-.198c.8 0 1.489.118 2.067.354a3.867 3.867 0 011.426.968c.372.41.646.888.825 1.436.179.548.268 1.134.268 1.758m-7.778 4.266a4.1 4.1 0 00.9.083c.557 0 1.064-.1 1.52-.302.458-.2.847-.482 1.169-.843a3.86 3.86 0 00.75-1.3 5.01 5.01 0 00.268-1.675c0-.596-.136-1.103-.407-1.52-.272-.415-.743-.624-1.415-.624-.457 0-.885.042-1.285.125l-1.5 6.056"/>
  </g>
</svg>
