<?xml version="1.0" encoding="UTF-8" standalone="no"?>
<svg
   xmlns:dc="http://purl.org/dc/elements/1.1/"
   xmlns:cc="http://creativecommons.org/ns#"
   xmlns:rdf="http://www.w3.org/1999/02/22-rdf-syntax-ns#"
   xmlns:svg="http://www.w3.org/2000/svg"
   xmlns="http://www.w3.org/2000/svg"
   id="logo-small"
   version="1.1"
   height="256"
   width="256"
   viewBox="0 0 256 256">
  <metadata
     id="metadata">
    <rdf:RDF>
      <cc:Work
         rdf:about="">
        <dc:format>image/svg+xml</dc:format>
        <dc:type
           rdf:resource="http://purl.org/dc/dcmitype/StillImage" />
        <dc:title></dc:title>
      </cc:Work>
    </rdf:RDF>
  </metadata>
  <g
     id="lime-marker">
    <rect
       y="88"
       x="32.5"
       height="32"
       width="32"
       fill="#eeeeee"
       id="rect2-2" />
    <path
       d="m 48.640799,65.600304 c -21.033472,0 -38.540565,18.179305 -38.540565,37.904706 0,8.87403 5.004769,20.15025 8.620748,27.93819 l 29.779017,57.09026 29.638216,-57.09026 c 3.61598,-7.78794 8.761547,-18.49875 8.761547,-27.93819 0,-19.725401 -17.225494,-37.904706 -38.258963,-37.904706 z m 0,22.855912 c 8.268749,0.05443 14.972705,6.778499 14.972705,15.045594 0,8.2671 -6.703956,14.89547 -14.972705,14.94658 -8.26875,-0.0544 -14.972709,-6.67628 -14.972709,-14.94658 0,-8.267095 6.703959,-14.991294 14.972709,-15.045594 z"
       fill="#afb42b"
       stroke="#9ca126"
       stroke-width="3.2"
       id="path4-1" />
    <path
       d="m 48.599202,69.136494 c -19.020687,0 -35.001389,16.671559 -35.001389,34.339766 0,7.53558 4.617572,18.62972 8.20155,26.35377 l 0.09919,0.0992 26.601441,51.01132 26.399834,-51.01132 0.09919,-0.0992 c 3.632015,-7.81988 8.399984,-18.22723 8.399984,-26.35377 0,-17.690561 -15.779103,-34.339766 -34.799785,-34.339766 z m 0,15.87296 c 10.137535,0.06653 18.499086,8.308624 18.499086,18.466806 0,10.15818 -8.361551,18.40292 -18.499086,18.46682 -10.137541,-0.0641 -18.39989,-8.33739 -18.39989,-18.46682 0,-10.132623 8.262349,-18.402913 18.39989,-18.466806 z"
       fill="none"
       stroke="#ffffff"
       stroke-opacity="0.1"
       stroke-width="3.85"
       id="path6-5" />
  </g>
  <g
     id="red-marker">
    <rect
       y="88"
       x="191.5"
       height="32"
       width="32"
       fill="#eeeeee"
       id="rect2-9" />
    <path
       d="m 207.64079,65.60024 c -21.03346,0 -38.54055,18.179296 -38.54055,37.90468 0,8.87405 5.00475,20.15025 8.62076,27.93822 l 29.779,57.09024 29.63822,-57.09024 c 3.61597,-7.78797 8.76155,-18.49877 8.76155,-27.93822 0,-19.725384 -17.22549,-37.90468 -38.25898,-37.90468 z m 0,22.855908 c 8.26877,0.05441 14.9727,6.778498 14.9727,15.045602 0,8.26708 -6.70393,14.89547 -14.9727,14.94659 -8.26874,-0.0544 -14.9727,-6.67631 -14.9727,-14.94659 0,-8.267104 6.70396,-14.99129 14.9727,-15.045602 z"
       fill="#e53935"
       stroke="#e2221d"
       stroke-width="3.2"
       id="path4-9" />
    <path
       d="m 207.59922,69.136424 c -19.02071,0 -35.0014,16.671547 -35.0014,34.339756 0,7.53557 4.61756,18.62973 8.20153,26.35378 l 0.0992,0.0989 26.60143,51.0113 26.39984,-51.0113 0.0992,-0.0989 c 3.63198,-7.81987 8.39996,-18.22724 8.39996,-26.35378 0,-17.690548 -15.77912,-34.339756 -34.79979,-34.339756 z m 0,15.872962 c 10.13753,0.06721 18.49905,8.308618 18.49905,18.466794 0,10.15818 -8.36152,18.40292 -18.49905,18.46683 -10.13757,-0.064 -18.39991,-8.33739 -18.39991,-18.46683 0,-10.132604 8.26234,-18.402912 18.39991,-18.466794 z"
       fill="none"
       stroke="#ffffff"
       stroke-opacity="0.1"
       stroke-width="3.85"
       id="path6-4" />
  </g>
  <g
     id="green-marker">
    <rect
       y="68"
       x="104"
       height="48"
       width="48"
       fill="#eeeeee"
       id="rect2-1" />
    <path
       d="m 128.21119,34.40036 c -31.550201,0 -57.810835,27.26896 -57.810835,56.857056 0,13.311044 7.507152,30.225384 12.931118,41.907294 l 44.668517,85.6354 44.45734,-85.6354 c 5.42396,-11.68191 13.14232,-27.74812 13.14232,-41.907294 0,-29.588096 -25.83825,-56.857056 -57.38846,-56.857056 z m 0,34.28387 c 12.40314,0.08165 22.45906,10.16775 22.45906,22.568396 0,12.400664 -10.05592,22.343204 -22.45906,22.419884 -12.40311,-0.0816 -22.45905,-10.01443 -22.45905,-22.419884 0,-12.400646 10.05594,-22.486945 22.45905,-22.568396 z"
       fill="#2e7d32"
       stroke="#286c2b"
       stroke-width="4.8"
       id="path4-19" />
    <path
       d="m 128.14879,39.704645 c -28.531012,0 -52.502067,25.007341 -52.502067,51.50966 0,11.303355 6.926347,27.944565 12.302321,39.530655 l 0.148785,0.14878 39.902161,76.51699 39.59975,-76.51699 0.14879,-0.14878 c 5.44802,-11.72983 12.59998,-27.34085 12.59998,-39.530655 0,-26.53585 -23.66866,-51.50966 -52.19968,-51.50966 z m 0,23.809442 c 15.20631,0.09979 27.74865,12.462936 27.74865,27.700218 0,15.237265 -12.54234,27.604375 -27.74865,27.700215 -15.2063,-0.0962 -27.59982,-12.50608 -27.59982,-27.700215 0,-15.198943 12.39352,-27.604379 27.59982,-27.700218 z"
       fill="none"
       stroke="#ffffff"
       stroke-opacity="0.1"
       stroke-width="5.75"
       id="path6-7" />
  </g>
</svg>
