<?xml version="1.0" encoding="UTF-8" standalone="no"?>
<svg
   xmlns:dc="http://purl.org/dc/elements/1.1/"
   xmlns:cc="http://creativecommons.org/ns#"
   xmlns:rdf="http://www.w3.org/1999/02/22-rdf-syntax-ns#"
   xmlns:svg="http://www.w3.org/2000/svg"
   xmlns="http://www.w3.org/2000/svg"
   id="logo"
   version="1.1"
   viewBox="0 0 340 170">
  <metadata
     id="metadata">
    <rdf:RDF>
      <cc:Work
         rdf:about="">
        <dc:format>image/svg+xml</dc:format>
        <dc:type
           rdf:resource="http://purl.org/dc/dcmitype/StillImage" />
        <dc:title></dc:title>
      </cc:Work>
    </rdf:RDF>
  </metadata>
  <path
     fill="#37474f"
     d="M54.939 24.15h4.0217v29.633h-4.1063l-16.933-22.945v22.945h-4.064V24.15h4.1063l16.976 22.987zM76.441 31.26q3.3443 0 5.9267 1.4393 2.6247 1.4393 4.064 4.0217 1.4817 2.54 1.4817 5.842t-1.4817 5.8843q-1.4393 2.5823-4.064 4.0217-2.5823 1.4393-5.9267 1.4393-3.3867 0-6.0113-1.4393-2.5823-1.4393-4.064-3.9793-1.4393-2.5823-1.4393-5.9267 0-3.302 1.4393-5.842 1.4817-2.5823 4.064-4.0217Q73.0544 31.26 76.441 31.26zm0 3.429q-2.2013 0-3.937 1.016-1.6933 1.016-2.667 2.8363-.93133 1.778-.93133 4.064 0 2.3283.93133 4.1487.97367 1.8203 2.667 2.8363 1.7357.97367 3.937.97367 2.159 0 3.8523-.97367 1.7357-1.016 2.667-2.8363.97367-1.8203.97367-4.1487 0-2.286-.97367-4.064-.93133-1.8203-2.667-2.8363-1.6933-1.016-3.8523-1.016zM105.44 52.3q-2.5823 1.651-5.2493 1.651t-4.318-1.5663q-1.651-1.6087-1.651-4.826v-12.404h-3.175V32.149h3.175v-6.0113h3.9793v6.0113h6.858v3.0057h-6.858v11.684q0 1.8627.67733 2.667.67733.80434 2.032.80434 1.6087 0 3.4713-1.0583zM118.85 31.26q5.207 0 7.874 3.0903 2.667 3.048 2.667 8.509 0 .84666-.0423 1.27h-17.695q.46566 3.0057 2.4977 4.7837 2.0743 1.778 5.08 1.778 1.9897 0 3.683-.71967 1.7357-.71967 3.0057-2.032l2.159 2.2437q-1.651 1.778-3.9793 2.7517-2.3283.97367-5.1647.97367-3.302 0-5.8843-1.397-2.54-1.4393-3.9793-4.0217-1.397-2.5823-1.397-5.8843t1.397-5.842q1.4393-2.5823 3.9793-4.0217 2.54-1.4817 5.7997-1.4817zm6.985 9.8213q-.16933-3.048-2.032-4.7837-1.8627-1.778-4.9107-1.778-2.9633 0-4.953 1.778-1.9473 1.778-2.3283 4.7837zM147 36.34q-1.397-.84666-3.0903-1.3547-1.651-.508-3.175-.508-1.778 0-2.8787.67733-1.0583.635-1.0583 1.9897t1.1853 2.0743q1.2277.67733 3.683 1.397 2.3283.67733 3.81 1.3547 1.4817.67733 2.4977 1.9897 1.0583 1.3123 1.0583 3.4713 0 3.175-2.413 4.826-2.3707 1.651-5.9267 1.651-2.4977 0-4.8683-.80433-2.3283-.80434-3.937-2.286l1.4817-2.8787q1.397 1.27 3.429 2.032 2.0743.762 4.0217.762t3.1327-.71967q1.1853-.71966 1.1853-2.2013 0-1.524-1.27-2.286-1.2277-.762-3.7677-1.524-2.2437-.635-3.683-1.27-1.397-.67734-2.413-1.9473-.97366-1.27-.97366-3.302 0-3.1327 2.286-4.699t5.715-1.5663q2.032 0 3.9793.59267 1.9897.55033 3.429 1.524zM173.79 53.78l-5.8843-9.3133q-1.016.0847-1.651.0847h-7.5353v9.2287h-4.064v-29.633h11.599q5.6303 0 8.6783 2.6247 3.0903 2.5823 3.0903 7.366 0 3.5983-1.6933 6.0537-1.651 2.4553-4.7837 3.556l6.9003 10.033zm-7.5353-12.912q3.81 0 5.842-1.651 2.032-1.6933 2.032-4.953 0-3.175-2.032-4.7837-2.032-1.651-5.842-1.651h-7.5353v13.039zM193.84 31.26q5.207 0 7.874 3.0903 2.667 3.048 2.667 8.509 0 .84666-.0423 1.27h-17.695q.46567 3.0057 2.4977 4.7837 2.0743 1.778 5.08 1.778 1.9897 0 3.683-.71967 1.7357-.71967 3.0057-2.032l2.159 2.2437q-1.651 1.778-3.9793 2.7517-2.3283.97367-5.1647.97367-3.302 0-5.8843-1.397-2.54-1.4393-3.9793-4.0217-1.397-2.5823-1.397-5.8843t1.397-5.842q1.4393-2.5823 3.9793-4.0217 2.54-1.4817 5.7997-1.4817zm6.985 9.8213q-.16933-3.048-2.032-4.7837-1.8627-1.778-4.9107-1.778-2.9633 0-4.953 1.778-1.9473 1.778-2.3283 4.7837zM205.29 31.39h4.191l6.731 18.5 6.6887-18.5h3.9793l-8.7207 22.394h-4.1063zM230.59 31.39h3.937v22.394h-3.937zm1.9473-8.9323q1.0583 0 1.7357.71967.71966.71966.71966 1.8203t-.71966 1.8203q-.67734.71967-1.7357.71967t-1.778-.71967q-.67733-.71966-.67733-1.8203t.67733-1.8203q.71967-.71967 1.778-.71967zM251.14 31.26q5.207 0 7.874 3.0903 2.667 3.048 2.667 8.509 0 .84666-.0423 1.27h-17.695q.46566 3.0057 2.4977 4.7837 2.0743 1.778 5.08 1.778 1.9897 0 3.683-.71967 1.7357-.71967 3.0057-2.032l2.159 2.2437q-1.651 1.778-3.9793 2.7517-2.3283.97367-5.1647.97367-3.302 0-5.8843-1.397-2.54-1.4393-3.9793-4.0217-1.397-2.5823-1.397-5.8843t1.397-5.842q1.4393-2.5823 3.9793-4.0217 2.54-1.4817 5.7997-1.4817zm6.985 9.8213q-.16933-3.048-2.032-4.7837-1.8627-1.778-4.9107-1.778-2.9633 0-4.953 1.778-1.9473 1.778-2.3283 4.7837zM262.58 31.39h4.1063l6.2653 18.5 6.1807-18.5h4.1063l6.223 18.5 6.1807-18.5h4.064l-8.255 22.394h-4.1063l-6.1807-17.611-6.1807 17.611h-4.1063z"
     id="path2" />
  <g
     id="lime-marker">
    <rect
       y="96.85408"
       x="124.66304"
       height="14.526607"
       width="14.526607"
       fill="#eeeeee"
       id="rect2-2"
       style="stroke-width:1.45266" />
    <path
       d="m 131.99025,86.688258 c -9.54684,0 -17.49309,8.251364 -17.49309,17.204482 0,4.02781 2.2716,9.14595 3.91285,12.6808 l 13.51633,25.91257 13.45242,-25.91257 c 1.64125,-3.53485 3.97676,-8.39635 3.97676,-12.6808 0,-8.953118 -7.81844,-17.204482 -17.36527,-17.204482 z m 0,10.374018 c 3.75308,0.02471 6.79593,3.076674 6.79593,6.829014 0,3.75233 -3.04285,6.76087 -6.79593,6.78407 -3.75309,-0.0247 -6.79593,-3.03028 -6.79593,-6.78407 0,-3.75234 3.04284,-6.804368 6.79593,-6.829014 z"
       fill="#afb42b"
       stroke="#9ca126"
       stroke-linecap="round"
       stroke-width="1.45266"
       id="path4-1" />
    <path
       d="m 131.97137,88.293291 c -8.63326,0 -15.8867,7.567017 -15.8867,15.586399 0,3.42031 2.09586,8.4558 3.72258,11.96165 l 0.045,0.045 12.07407,23.15341 11.98256,-23.15341 0.045,-0.045 c 1.64853,-3.54935 3.81265,-8.27311 3.81265,-11.96165 0,-8.029529 -7.16194,-15.586399 -15.7952,-15.586399 z m 0,7.204542 c 4.6013,0.0302 8.39651,3.771183 8.39651,8.381857 0,4.61067 -3.79521,8.35286 -8.39651,8.38186 -4.60131,-0.0291 -8.35149,-3.78424 -8.35149,-8.38186 0,-4.599073 3.75018,-8.352857 8.35149,-8.381857 z"
       fill="none"
       stroke="#ffffff"
       stroke-linecap="round"
       stroke-opacity="0.1"
       stroke-width="1.74319"
       id="path6-5" />
  </g>
  <g
     id="red-marker">
    <rect
       y="96.854065"
       x="196.83119"
       height="14.526607"
       width="14.526607"
       fill="#eeeeee"
       id="rect2-9"
       style="stroke-width:1.45266" />
    <path
       d="m 204.1584,86.688239 c -9.54683,0 -17.49309,8.25136 -17.49309,17.204471 0,4.02782 2.2716,9.14595 3.91286,12.68081 l 13.51632,25.91256 13.45243,-25.91256 c 1.64124,-3.53486 3.97676,-8.39636 3.97676,-12.68081 0,-8.953111 -7.81844,-17.204471 -17.36528,-17.204471 z m 0,10.374017 c 3.75309,0.02469 6.79592,3.076674 6.79592,6.829014 0,3.75233 -3.04283,6.76087 -6.79592,6.78407 -3.75308,-0.0247 -6.79593,-3.03029 -6.79593,-6.78407 0,-3.75234 3.04285,-6.804362 6.79593,-6.829014 z"
       fill="#e53935"
       stroke="#e2221d"
       stroke-linecap="round"
       stroke-width="1.45266"
       id="path4-9" />
    <path
       d="m 204.13953,88.29327 c -8.63327,0 -15.88671,7.567011 -15.88671,15.5864 0,3.4203 2.09586,8.4558 3.72258,11.96165 l 0.045,0.0449 12.07406,23.15341 11.98257,-23.15341 0.045,-0.0449 c 1.64851,-3.54934 3.81264,-8.27312 3.81264,-11.96165 0,-8.029529 -7.16195,-15.5864 -15.7952,-15.5864 z m 0,7.204543 c 4.6013,0.03051 8.39649,3.77118 8.39649,8.381857 0,4.61067 -3.79519,8.35285 -8.39649,8.38186 -4.60132,-0.029 -8.3515,-3.78424 -8.3515,-8.38186 0,-4.599071 3.75018,-8.352862 8.3515,-8.381857 z"
       fill="none"
       stroke="#ffffff"
       stroke-linecap="round"
       stroke-opacity="0.1"
       stroke-width="1.74319"
       id="path6-4" />
  </g>
  <g
     id="green-marker">
    <rect
       y="87.775734"
       x="157.11546"
       height="21.789911"
       width="21.789911"
       fill="#eeeeee"
       id="rect2-1"
       style="stroke-width:2.17899" />
    <path
       d="m 168.10627,72.526992 c -14.32025,0 -26.23963,12.377046 -26.23963,25.80672 0,6.041718 3.40741,13.718928 5.86928,19.021208 l 20.27449,38.86885 20.17864,-38.86885 c 2.46187,-5.30228 5.96514,-12.59453 5.96514,-19.021208 0,-13.429674 -11.72767,-25.80672 -26.04792,-25.80672 z m 0,15.561027 c 5.62963,0.03706 10.19389,4.615017 10.19389,10.243518 0,5.628513 -4.56426,10.141303 -10.19389,10.176113 -5.62962,-0.0371 -10.19389,-4.54543 -10.19389,-10.176113 0,-5.628501 4.56427,-10.206548 10.19389,-10.243518 z"
       fill="#2e7d32"
       stroke="#286c2b"
       stroke-linecap="round"
       stroke-width="2.17899"
       id="path4-19" />
    <path
       d="m 168.07795,74.934541 c -12.94988,0 -23.83005,11.350525 -23.83005,23.379603 0,5.130456 3.14379,12.683696 5.58388,17.942476 l 0.0675,0.0675 18.1111,34.73012 17.97384,-34.73012 0.0675,-0.0675 c 2.47279,-5.32402 5.71898,-12.40967 5.71898,-17.942476 0,-12.044297 -10.74291,-23.379603 -23.69279,-23.379603 z m 0,10.806814 c 6.90196,0.0453 12.59477,5.656774 12.59477,12.572789 0,6.916006 -5.69281,12.529286 -12.59477,12.572786 -6.90196,-0.0437 -12.52722,-5.67636 -12.52722,-12.572786 0,-6.898614 5.62526,-12.529289 12.52722,-12.572789 z"
       fill="none"
       stroke="#ffffff"
       stroke-linecap="round"
       stroke-opacity="0.1"
       stroke-width="2.61479"
       id="path6-7" />
  </g>
</svg>
