<?xml version="1.0" encoding="UTF-8" standalone="no"?>
<svg
   xmlns:dc="http://purl.org/dc/elements/1.1/"
   xmlns:cc="http://creativecommons.org/ns#"
   xmlns:rdf="http://www.w3.org/1999/02/22-rdf-syntax-ns#"
   xmlns:svg="http://www.w3.org/2000/svg"
   xmlns="http://www.w3.org/2000/svg"
   id="logo"
   version="1.1"
   viewBox="0 0 700 150">
  <metadata
     id="metadata33">
    <rdf:RDF>
      <cc:Work
         rdf:about="">
        <dc:format>image/svg+xml</dc:format>
        <dc:type
           rdf:resource="http://purl.org/dc/dcmitype/StillImage" />
        <dc:title></dc:title>
      </cc:Work>
    </rdf:RDF>
  </metadata>
  <defs
     id="defs31" />
  <path
     fill="currentColor"
     aria-label="NotesReview"
     d="m 248.242,47.797332 h 7.295 v 53.753998 h -7.45 L 217.372,59.929332 V 101.55133 H 210 V 47.797332 h 7.449 l 30.795,41.697998 z m 39.004,12.897 q 6.067,0 10.751,2.611 4.761,2.61 7.372,7.295 2.688,4.608 2.688,10.598 0,5.989998 -2.688,10.673998 -2.61,4.684 -7.372,7.295 -4.684,2.611 -10.751,2.611 -6.144,0 -10.905,-2.61 -4.684,-2.612 -7.372,-7.22 -2.61,-4.683 -2.61,-10.749998 0,-5.99 2.61,-10.598 2.688,-4.684 7.372,-7.295 4.762,-2.61 10.905,-2.61 z m 0,6.22 q -3.993,0 -7.142,1.843 -3.071,1.843 -4.838,5.145 -1.69,3.226 -1.69,7.373 0,4.223 1.69,7.524998 1.767,3.302 4.838,5.145 3.149,1.767 7.142,1.767 3.916,0 6.988,-1.767 3.149,-1.843 4.838,-5.145 1.766,-3.301998 1.766,-7.524998 0,-4.147 -1.766,-7.373 -1.69,-3.302 -4.838,-5.145 -3.072,-1.843 -6.988,-1.843 z M 339.85,98.86133 q -4.684,2.995 -9.522,2.995 -4.838,0 -7.833,-2.842 -2.995,-2.918 -2.995,-8.754 V 67.760332 h -5.76 v -5.453 h 5.76 v -10.905 h 7.219 v 10.905 h 12.44 v 5.452 h -12.44 V 88.95433 q 0,3.379 1.228,4.838 1.229,1.459 3.686,1.459 2.919,0 6.297,-1.92 z m 24.326,-38.166998 q 9.446,0 14.283,5.606 4.838,5.529 4.838,15.435 0,1.536 -0.076,2.304 h -32.1 q 0.846,5.451998 4.532,8.677998 3.763,3.225 9.215,3.225 3.61,0 6.68,-1.305 3.15,-1.306 5.453,-3.687 l 3.917,4.07 q -2.995,3.226 -7.219,4.992 -4.223,1.766 -9.369,1.766 -5.99,0 -10.674,-2.534 -4.607,-2.61 -7.218,-7.295 -2.534,-4.684 -2.534,-10.673998 0,-5.99 2.534,-10.598 2.61,-4.684 7.218,-7.295 4.608,-2.688 10.52,-2.688 z m 12.67,17.816 q -0.306,-5.53 -3.685,-8.678 -3.38,-3.225 -8.908,-3.225 -5.376,0 -8.985,3.225 -3.532,3.226 -4.224,8.678 z m 38.394,-8.601 q -2.534,-1.536 -5.606,-2.457 -2.995,-0.922 -5.76,-0.922 -3.224,0 -5.221,1.229 -1.92,1.152 -1.92,3.61 0,2.458 2.15,3.762 2.227,1.229 6.681,2.534 4.224,1.229 6.912,2.458 2.687,1.228 4.53,3.609 1.92,2.38 1.92,6.296998 0,5.76 -4.377,8.754 -4.3,2.995 -10.751,2.995 -4.53,0 -8.831,-1.459 -4.224,-1.459 -7.142,-4.147 l 2.688,-5.222 q 2.534,2.304 6.22,3.686 3.763,1.383 7.296,1.383 3.533,0 5.682,-1.306 2.15,-1.305 2.15,-3.993 0,-2.764 -2.303,-4.146998 -2.227,-1.382 -6.835,-2.764 -4.07,-1.152 -6.681,-2.304 -2.534,-1.229 -4.377,-3.532 -1.766,-2.304 -1.766,-5.99 0,-5.683 4.146,-8.524 4.146,-2.841 10.367,-2.842 3.687,0 7.219,1.076 3.61,0.998 6.22,2.764 z m 48.597,31.635998 -10.674,-16.893998 q -1.843,0.154 -2.995,0.154 h -13.669 v 16.739998 h -7.372 V 47.792332 h 21.04 q 10.214,0 15.743,4.762 5.606,4.684 5.606,13.361 0,6.528 -3.072,10.982 -2.995,4.454 -8.677,6.45 l 12.517,18.199998 z M 450.168,78.124332 q 6.912,0 10.598,-2.995 3.686,-3.072 3.686,-8.985 0,-5.76 -3.686,-8.677 -3.686,-2.995 -10.598,-2.995 h -13.669 v 23.652 z m 50.04,-17.43 q 9.446,0 14.284,5.606 4.837,5.529 4.837,15.435 0,1.536 -0.076,2.304 h -32.099 q 0.845,5.451998 4.53,8.677998 3.764,3.225 9.216,3.225 3.61,0 6.68,-1.305 3.15,-1.306 5.453,-3.687 l 3.917,4.07 q -2.995,3.226 -7.219,4.992 -4.223,1.766 -9.369,1.766 -5.99,0 -10.674,-2.534 -4.607,-2.61 -7.218,-7.295 -2.534,-4.684 -2.534,-10.673998 0,-5.99 2.534,-10.598 2.61,-4.684 7.218,-7.295 4.608,-2.688 10.521,-2.688 z m 12.67,17.816 q -0.306,-5.53 -3.685,-8.678 -3.38,-3.225 -8.908,-3.225 -5.376,0 -8.985,3.225 -3.532,3.226 -4.223,8.678 z m 8.1,-17.58 h 7.603 l 12.21,33.558998 12.133,-33.559998 h 7.219 l -15.82,40.623998 h -7.448 z m 45.894,0 h 7.142 v 40.622998 h -7.141 z m 3.533,-16.203 q 1.92,0 3.149,1.305 1.305,1.306 1.305,3.302 0,1.996 -1.305,3.302 -1.229,1.306 -3.149,1.306 -1.92,0 -3.225,-1.306 -1.229,-1.305 -1.229,-3.302 0,-1.997 1.229,-3.302 1.305,-1.305 3.225,-1.305 z m 33.745,15.967 q 9.446,0 14.284,5.606 4.838,5.529 4.838,15.435 0,1.536 -0.077,2.304 h -32.099 q 0.845,5.451998 4.531,8.677998 3.763,3.225 9.215,3.225 3.61,0 6.681,-1.305 3.149,-1.306 5.453,-3.687 l 3.916,4.07 q -2.995,3.226 -7.218,4.992 -4.224,1.766 -9.37,1.766 -5.989,0 -10.673,-2.534 -4.608,-2.61 -7.219,-7.295 -2.534,-4.684 -2.534,-10.673998 0,-5.99 2.534,-10.598 2.611,-4.684 7.219,-7.295 4.607,-2.688 10.52,-2.688 z m 12.671,17.816 q -0.307,-5.53 -3.686,-8.678 -3.379,-3.225 -8.908,-3.225 -5.375,0 -8.985,3.225 -3.532,3.226 -4.223,8.678 z m 8.081,-17.58 h 7.45 l 11.365,33.558998 11.212,-33.559998 h 7.448 l 11.289,33.559998 11.212,-33.559998 h 7.372 l -14.975,40.623998 h -7.449 L 658.615,69.606332 647.403,101.55333 h -7.449 z"
     id="path2" />
  <g
     id="g886"
     transform="matrix(9.2114229,0,0,9.2114229,59.442797,-486.71609)">
    <rect
       y="57.467621"
       x="-4.4692864"
       height="2.6458333"
       width="2.6458333"
       fill="#eeeeee"
       id="rect2-2"
       style="stroke-width:0.264583" />
    <path
       d="m -3.1347301,55.616048 c -1.7388323,0 -3.1861396,1.502879 -3.1861396,3.133573 0,0.733614 0.4137431,1.665817 0.7126752,2.309644 l 2.4618245,4.719639 2.45018457,-4.719639 c 0.29893225,-0.643827 0.72431505,-1.529287 0.72431505,-2.309644 0,-1.630694 -1.42402762,-3.133573 -3.16285972,-3.133573 z m 0,1.889493 c 0.6835756,0.0045 1.2377901,0.560377 1.2377901,1.243816 0,0.683439 -0.5542145,1.231405 -1.2377901,1.23563 -0.6835756,-0.0045 -1.2377904,-0.551926 -1.2377904,-1.23563 0,-0.683439 0.5542148,-1.239327 1.2377904,-1.243816 z"
       fill="#afb42b"
       stroke="#9ca126"
       stroke-linecap="round"
       stroke-width="0.264583"
       id="path4-1" />
    <path
       d="m -3.1381689,55.908384 c -1.5724358,0 -2.8935568,1.378234 -2.8935568,2.838861 0,0.622964 0.3817336,1.540114 0.6780203,2.17866 l 0.0082,0.0082 2.199135,4.217094 2.18246827,-4.217094 0.0082,-0.0082 c 0.3002578,-0.646468 0.69442475,-1.506841 0.69442475,-2.17866 0,-1.462475 -1.30445482,-2.838861 -2.87689022,-2.838861 z m 0,1.312214 c 0.8380677,0.0055 1.5293152,0.686872 1.5293152,1.526647 0,0.839774 -0.6912475,1.521365 -1.5293152,1.526647 -0.8380682,-0.0053 -1.5211147,-0.68925 -1.5211147,-1.526647 0,-0.837662 0.6830465,-1.521365 1.5211147,-1.526647 z"
       fill="none"
       stroke="#ffffff"
       stroke-linecap="round"
       stroke-opacity="0.1"
       stroke-width="0.3175"
       id="path6-5" />
  </g>
  <g
     id="g916"
     transform="matrix(2.4371889,0,0,2.4371889,-658.44608,-379.93832)">
    <rect
       y="173.3886"
       x="327.3443"
       height="10"
       width="10"
       fill="#eeeeee"
       id="rect2-9" />
    <path
       d="m 332.38829,166.39052 c -6.57196,0 -12.0421,5.68017 -12.0421,11.84342 0,2.77272 1.56375,6.296 2.69358,8.72937 l 9.30453,17.838 9.26054,-17.838 c 1.12982,-2.43337 2.73757,-5.77999 2.73757,-8.72937 0,-6.16325 -5.38215,-11.84342 -11.95412,-11.84342 z m 0,7.14139 c 2.5836,0.017 4.67826,2.11796 4.67826,4.70104 0,2.58307 -2.09466,4.65413 -4.67826,4.6701 -2.58359,-0.017 -4.67826,-2.08603 -4.67826,-4.6701 0,-2.58308 2.09467,-4.68407 4.67826,-4.70104 z"
       fill="#e53935"
       stroke="#e2221d"
       stroke-linecap="round"
       stroke-width="1"
       id="path4-9" />
    <path
       d="m 332.3753,167.49541 c -5.94307,0 -10.93628,5.20907 -10.93628,10.72955 0,2.35451 1.44277,5.82091 2.56259,8.23431 l 0.031,0.0309 8.31169,15.93862 8.2487,-15.93862 0.031,-0.0309 c 1.13482,-2.44334 2.62459,-5.69515 2.62459,-8.23431 0,-5.52746 -4.93023,-10.72955 -10.87329,-10.72955 z m 0,4.95955 c 3.1675,0.021 5.78008,2.59605 5.78008,5.77 0,3.17395 -2.61258,5.75004 -5.78008,5.77001 -3.16751,-0.02 -5.7491,-2.60504 -5.7491,-5.77001 0,-3.16596 2.58159,-5.75004 5.7491,-5.77 z"
       fill="none"
       stroke="#ffffff"
       stroke-linecap="round"
       stroke-opacity="0.1"
       stroke-width="1.2"
       id="path6-4" />
  </g>
  <g
     id="g901"
     transform="matrix(13.817135,0,0,13.817135,-332.29772,-1004.5885)">
    <rect
       y="74.689857"
       x="29.312792"
       height="2.6458333"
       width="2.6458333"
       fill="#eeeeee"
       id="rect2-1"
       style="stroke-width:0.264583" />
    <path
       d="m 30.647348,72.838284 c -1.738832,0 -3.186139,1.502879 -3.186139,3.133573 0,0.733614 0.413743,1.665817 0.712675,2.309644 l 2.461824,4.719639 2.450185,-4.719639 c 0.298932,-0.643827 0.724315,-1.529287 0.724315,-2.309644 0,-1.630694 -1.424028,-3.133573 -3.16286,-3.133573 z m 0,1.889493 c 0.683576,0.0045 1.23779,0.560377 1.23779,1.243816 0,0.68344 -0.554214,1.231405 -1.23779,1.235631 -0.683575,-0.0045 -1.23779,-0.551927 -1.23779,-1.235631 0,-0.683439 0.554215,-1.239327 1.23779,-1.243816 z"
       fill="#2e7d32"
       stroke="#286c2b"
       stroke-linecap="round"
       stroke-width="0.264583"
       id="path4-19" />
    <path
       d="m 30.643909,73.13062 c -1.572435,0 -2.893556,1.378234 -2.893556,2.838861 0,0.622964 0.381733,1.540114 0.67802,2.17866 l 0.0082,0.0082 2.199135,4.217094 2.182468,-4.217094 0.0082,-0.0082 c 0.300258,-0.646468 0.694425,-1.506841 0.694425,-2.17866 0,-1.462475 -1.304455,-2.838861 -2.87689,-2.838861 z m 0,1.312214 c 0.838068,0.0055 1.529316,0.686872 1.529316,1.526647 0,0.839774 -0.691248,1.521365 -1.529316,1.526647 -0.838068,-0.0053 -1.521114,-0.68925 -1.521114,-1.526647 0,-0.837662 0.683046,-1.521365 1.521114,-1.526647 z"
       fill="none"
       stroke="#ffffff"
       stroke-linecap="round"
       stroke-opacity="0.1"
       stroke-width="0.3175"
       id="path6-7" />
  </g>
</svg>
