<?xml version="1.0" encoding="UTF-8"?>
<svg width="256" height="256" version="1.1" viewBox="0 0 100 100" xmlns="http://www.w3.org/2000/svg">
 <circle cx="50" cy="50" r="50" fill="#35af6d" style="paint-order:normal"/>
 <path d="m40.528 59.15a1.8997 1.8997 0 0 1 -2.576 0.7675l-26.018-14.065a1.8997 1.8997 0 0 1 0.30395 -3.4727l21.117-7.0442a1.8997 1.8997 0 0 0 1.2006 -1.2006l7.0441-21.117a1.8997 1.8997 0 0 1 3.4727 -0.30396l14.065 26.019a1.8997 1.8997 0 0 1 -0.76749 2.5761l-3.3435 1.8085a1.8997 1.8997 0 0 1 -2.576 -0.76749l-5.7143-10.586a1.8997 1.8997 0 0 0 -3.4803 0.30396l-2.69 8.0777a1.8997 1.8997 0 0 1 -1.2006 1.2006l-8.0777 2.69a1.8997 1.8997 0 0 0 -0.30395 3.4803l10.585 5.7144a1.8997 1.8997 0 0 1 0.76749 2.5761zm19.468-14.833a1.8997 1.8997 0 0 1 2.576 0.7675l18.457 34.157a1.8997 1.8997 0 0 1 -2.5684 2.5685l-34.157-18.457a1.8997 1.8997 0 0 1 -0.76749 -2.5761l1.8085-3.3435a1.8997 1.8997 0 0 1 2.5684 -0.7675l11.748 6.3451a1.8997 1.8997 0 0 0 2.5684 -2.5685l-6.3451-11.748a1.8997 1.8997 0 0 1 0.76749 -2.5685z" fill="#fff" stroke-width=".75989"/>
</svg>
