<svg id="logo" xmlns="http://www.w3.org/2000/svg">
  <path fill="currentColor" aria-label="NotesReview" d="M248.242 47.797332h7.295v53.753998h-7.45l-30.715-41.621998v41.621998H210V47.797332h7.449l30.795 41.697998zm39.004 12.897q6.067 0 10.751 2.611 4.761 2.61 7.372 7.295 2.688 4.608 2.688 10.598 0 5.989998-2.688 10.673998-2.61 4.684-7.372 7.295-4.684 2.611-10.751 2.611-6.144 0-10.905-2.61-4.684-2.612-7.372-7.22-2.61-4.683-2.61-10.749998 0-5.99 2.61-10.598 2.688-4.684 7.372-7.295 4.762-2.61 10.905-2.61zm0 6.22q-3.993 0-7.142 1.843-3.071 1.843-4.838 5.145-1.69 3.226-1.69 7.373 0 4.223 1.69 7.524998 1.767 3.302 4.838 5.145 3.149 1.767 7.142 1.767 3.916 0 6.988-1.767 3.149-1.843 4.838-5.145 1.766-3.301998 1.766-7.524998 0-4.147-1.766-7.373-1.69-3.302-4.838-5.145-3.072-1.843-6.988-1.843zM339.85 98.86133q-4.684 2.995-9.522 2.995t-7.833-2.842q-2.995-2.918-2.995-8.754V67.760332h-5.76v-5.453h5.76v-10.905h7.219v10.905h12.44v5.452h-12.44V88.95433q0 3.379 1.228 4.838 1.229 1.459 3.686 1.459 2.919 0 6.297-1.92zm24.326-38.166998q9.446 0 14.283 5.606 4.838 5.529 4.838 15.435 0 1.536-.076 2.304h-32.1q.846 5.451998 4.532 8.677998 3.763 3.225 9.215 3.225 3.61 0 6.68-1.305 3.15-1.306 5.453-3.687l3.917 4.07q-2.995 3.226-7.219 4.992-4.223 1.766-9.369 1.766-5.99 0-10.674-2.534-4.607-2.61-7.218-7.295-2.534-4.684-2.534-10.673998 0-5.99 2.534-10.598 2.61-4.684 7.218-7.295 4.608-2.688 10.52-2.688zm12.67 17.816q-.306-5.53-3.685-8.678-3.38-3.225-8.908-3.225-5.376 0-8.985 3.225-3.532 3.226-4.224 8.678zm38.394-8.601q-2.534-1.536-5.606-2.457-2.995-.922-5.76-.922-3.224 0-5.221 1.229-1.92 1.152-1.92 3.61t2.15 3.762q2.227 1.229 6.681 2.534 4.224 1.229 6.912 2.458 2.687 1.228 4.53 3.609 1.92 2.38 1.92 6.296998 0 5.76-4.377 8.754-4.3 2.995-10.751 2.995-4.53 0-8.831-1.459-4.224-1.459-7.142-4.147l2.688-5.222q2.534 2.304 6.22 3.686 3.763 1.383 7.296 1.383 3.533 0 5.682-1.306 2.15-1.305 2.15-3.993 0-2.764-2.303-4.146998-2.227-1.382-6.835-2.764-4.07-1.152-6.681-2.304-2.534-1.229-4.377-3.532-1.766-2.304-1.766-5.99 0-5.683 4.146-8.524 4.146-2.841 10.367-2.842 3.687 0 7.219 1.076 3.61.998 6.22 2.764zm48.597 31.635998l-10.674-16.893998q-1.843.154-2.995.154h-13.669v16.739998h-7.372V47.792332h21.04q10.214 0 15.743 4.762 5.606 4.684 5.606 13.361 0 6.528-3.072 10.982-2.995 4.454-8.677 6.45l12.517 18.199998zm-13.669-23.420998q6.912 0 10.598-2.995 3.686-3.072 3.686-8.985 0-5.76-3.686-8.677-3.686-2.995-10.598-2.995h-13.669v23.652zm50.04-17.43q9.446 0 14.284 5.606 4.837 5.529 4.837 15.435 0 1.536-.076 2.304h-32.099q.845 5.451998 4.53 8.677998 3.764 3.225 9.216 3.225 3.61 0 6.68-1.305 3.15-1.306 5.453-3.687l3.917 4.07q-2.995 3.226-7.219 4.992-4.223 1.766-9.369 1.766-5.99 0-10.674-2.534-4.607-2.61-7.218-7.295-2.534-4.684-2.534-10.673998 0-5.99 2.534-10.598 2.61-4.684 7.218-7.295 4.608-2.688 10.521-2.688zm12.67 17.816q-.306-5.53-3.685-8.678-3.38-3.225-8.908-3.225-5.376 0-8.985 3.225-3.532 3.226-4.223 8.678zm8.1-17.58h7.603l12.21 33.558998 12.133-33.559998h7.219l-15.82 40.623998h-7.448zm45.894 0h7.142v40.622998h-7.141zm3.533-16.203q1.92 0 3.149 1.305 1.305 1.306 1.305 3.302t-1.305 3.302q-1.229 1.306-3.149 1.306t-3.225-1.306q-1.229-1.305-1.229-3.302t1.229-3.302q1.305-1.305 3.225-1.305zm33.745 15.967q9.446 0 14.284 5.606 4.838 5.529 4.838 15.435 0 1.536-.077 2.304h-32.099q.845 5.451998 4.531 8.677998 3.763 3.225 9.215 3.225 3.61 0 6.681-1.305 3.149-1.306 5.453-3.687l3.916 4.07q-2.995 3.226-7.218 4.992-4.224 1.766-9.37 1.766-5.989 0-10.673-2.534-4.608-2.61-7.219-7.295-2.534-4.684-2.534-10.673998 0-5.99 2.534-10.598 2.611-4.684 7.219-7.295 4.607-2.688 10.52-2.688zm12.671 17.816q-.307-5.53-3.686-8.678-3.379-3.225-8.908-3.225-5.375 0-8.985 3.225-3.532 3.226-4.223 8.678zm8.081-17.58h7.45l11.365 33.558998 11.212-33.559998h7.448l11.289 33.559998 11.212-33.559998h7.372l-14.975 40.623998h-7.449l-11.211-31.946998-11.212 31.946998h-7.449z" />
  <g>
    <path fill="#eee" d="M139.24458497 42.75145387h24.43429801v24.434298h-24.43429801z"/>
    <path fill="#e53935" stroke="#ea6361" stroke-linecap="round" stroke-width="2.44342665083" d="M151.56924196 25.65218568c-16.05814081 0-29.424036 13.87911242-29.424036 28.93864386 0 6.77489597 3.8209209 15.38377265 6.58156103 21.32954939l22.73497945 43.58592443 22.6274747-43.58592443c2.76064936-5.94577674 6.68906578-14.12300904 6.68906578-21.3295494 0-15.05953143-13.15091337-28.93864385-29.20904496-28.93864385zm0 17.44945978c6.31282223.03694004 11.43100351 5.17511512 11.43100351 11.48669062 0 6.3115755-5.11818128 11.37208414-11.4310035 11.41105589-6.31283147-.03694004-11.43101275-5.09707929-11.43101275-11.41105589 0-6.3115755 5.11818128-11.44522542 11.43101274-11.48669062z"/>
    <path fill="none" stroke="#fff" stroke-linecap="round" stroke-opacity=".1" stroke-width="2.9321156750000004" d="M151.53748276 28.35194862c-14.5214628 0-26.72202895 12.72796837-26.72202895 26.2169016 0 5.75304206 3.52531745 14.22293184 6.26152174 20.11994772l.07572709.07388009 20.30903457 38.94486995 20.15512388-38.94486995.07572709-.07388009c2.77285804-5.97015716 6.41299438-13.91568305 6.41299438-20.11994773 0-13.506018-12.04665547-26.21690159-26.56811827-26.21690159zm0 12.11827298c7.73956669.05541006 14.12323991 6.34325159 14.12323991 14.09862861 0 7.75528467-6.38367322 14.0497754-14.1232399 14.09862861-7.7395667-.04617505-14.04751283-6.36523091-14.04751283-14.0986286 0-7.73579881 6.30794614-14.04986776 14.04751282-14.09862862z"/>
  </g>
  <g>
    <path fill="#eee" d="M18.32107493 42.75153457h24.43429801v24.43429801h-24.434298z"/>
    <path fill="#afb42b" stroke="#ccd142" stroke-linecap="round" stroke-width="2.44342665083" d="M30.6457504 25.65226639c-16.05813159 0-29.424036 13.8791124-29.424036 28.93864385 0 6.77489597 3.8209209 15.38377265 6.58156103 21.3295494l22.73497944 43.58592442L53.1657388 75.92045963c2.76064013-5.94577674 6.68905655-14.12300904 6.68905655-21.3295494 0-15.05953143-13.15091337-28.93864384-29.20904496-28.93864384zm0 17.44945977c6.31282222.03694005 11.4310035 5.17511513 11.4310035 11.48669062 0 6.3115755-5.11818128 11.37208415-11.4310035 11.4110559-6.31283147-.03694005-11.43101275-5.0970793-11.43101275-11.4110559 0-6.3115755 5.11818128-11.44522542 11.43101274-11.48669062z"/>
    <path fill="none" stroke="#fff" stroke-linecap="round" stroke-opacity=".1" stroke-width="2.9321156750000004" d="M30.6139912 28.35202932c-14.5214628 0-26.72202896 12.72796837-26.72202896 26.2169016 0 5.75304206 3.52531746 14.22293184 6.26153098 20.11994773l.07572708.07388008 20.30903457 38.94486996 20.15511466-38.94486996.07572708-.07388008C53.54195466 68.71872148 57.182091 60.77319559 57.182091 54.5689309c0-13.50601799-12.04665547-26.21690159-26.5680998-26.21690159zm0 12.11827298c7.73956668.05541007 14.1232399 6.34325159 14.1232399 14.09862861 0 7.75528468-6.38367322 14.0497754-14.1232399 14.09862861-7.7395667-.04617505-14.04751283-6.3652309-14.04751283-14.0986286 0-7.7357988 6.30794614-14.04986776 14.04751282-14.09862862z"/>
  </g>
  <g>
    <path fill="#eee" d="M72.6742436 27.48175447h36.6514541v36.65145408H72.6742436z"/>
    <path fill="#2e7d32" stroke="#3da442" stroke-linecap="round" stroke-width="3.66514129916" d="M91.16121881 1.8325702c-24.08720202 0-44.13604866 20.81867263-44.13604866 43.40797415 0 10.16234591 5.73138247 23.07566343 9.87234345 31.99433026l34.1024619 65.37889925 33.94123244-65.37889925c4.14096099-8.91866683 10.03358676-21.18451764 10.03358676-31.99433026 0-22.58930152-19.72637387-43.40797416-43.81357589-43.40797416zm0 26.17419471c9.46924902.05541007 17.14650857 7.76267418 17.14650857 17.23003926 0 9.46736507-7.67725955 17.0581295-17.14650857 17.11658713-9.46923516-.05541008-17.14650857-7.6456204-17.14650857-17.11658713 0-9.46736508 7.6772734-17.16784145 17.14650857-17.23003926z"/>
    <path fill="none" stroke="#fff" stroke-linecap="round" stroke-opacity=".1" stroke-width="4.3981751000000004" d="M91.11358 5.88221538c-21.78218454 0-40.0830373 19.09195623-40.0830373 39.32535997 0 8.62956477 5.28796334 21.3344019 9.39228442 30.17992742l.11359065.11082015 30.46355773 58.4173162 30.23267781-58.4173162.11359065-.11082015c4.15928787-8.95523747 9.61949343-20.8735286 9.61949343-30.17992742 0-20.2590309-18.0699867-39.32535997-39.85215739-39.32535997zm0 18.17741298c11.60935227.0831151 21.18487781 9.51487921 21.18487781 21.147947 0 11.63292925-9.57552554 21.07466716-21.1848778 21.14794698-11.60935228-.06926259-21.07125946-9.5478482-21.07125946-21.14794699 0-11.60370044 9.46190718-21.0748057 21.07125945-21.147947z"/>
  </g>
</svg>
