<svg xmlns="http://www.w3.org/2000/svg" width="1280" height="640" viewBox="0 0 338.66666 169.33334">
  <g fill="#37474f" aria-label="NotesReview">
    <path d="M54.939 24.15h4.0217v29.633h-4.1063l-16.933-22.945v22.945h-4.064V24.15h4.1063l16.976 22.987zM76.441 31.26q3.3443 0 5.9267 1.4393 2.6247 1.4393 4.064 4.0217 1.4817 2.54 1.4817 5.842t-1.4817 5.8843q-1.4393 2.5823-4.064 4.0217-2.5823 1.4393-5.9267 1.4393-3.3867 0-6.0113-1.4393-2.5823-1.4393-4.064-3.9793-1.4393-2.5823-1.4393-5.9267 0-3.302 1.4393-5.842 1.4817-2.5823 4.064-4.0217Q73.0544 31.26 76.441 31.26zm0 3.429q-2.2013 0-3.937 1.016-1.6933 1.016-2.667 2.8363-.93133 1.778-.93133 4.064 0 2.3283.93133 4.1487.97367 1.8203 2.667 2.8363 1.7357.97367 3.937.97367 2.159 0 3.8523-.97367 1.7357-1.016 2.667-2.8363.97367-1.8203.97367-4.1487 0-2.286-.97367-4.064-.93133-1.8203-2.667-2.8363-1.6933-1.016-3.8523-1.016zM105.44 52.3q-2.5823 1.651-5.2493 1.651t-4.318-1.5663q-1.651-1.6087-1.651-4.826v-12.404h-3.175V32.149h3.175v-6.0113h3.9793v6.0113h6.858v3.0057h-6.858v11.684q0 1.8627.67733 2.667.67733.80434 2.032.80434 1.6087 0 3.4713-1.0583zM118.85 31.26q5.207 0 7.874 3.0903 2.667 3.048 2.667 8.509 0 .84666-.0423 1.27h-17.695q.46566 3.0057 2.4977 4.7837 2.0743 1.778 5.08 1.778 1.9897 0 3.683-.71967 1.7357-.71967 3.0057-2.032l2.159 2.2437q-1.651 1.778-3.9793 2.7517-2.3283.97367-5.1647.97367-3.302 0-5.8843-1.397-2.54-1.4393-3.9793-4.0217-1.397-2.5823-1.397-5.8843t1.397-5.842q1.4393-2.5823 3.9793-4.0217 2.54-1.4817 5.7997-1.4817zm6.985 9.8213q-.16933-3.048-2.032-4.7837-1.8627-1.778-4.9107-1.778-2.9633 0-4.953 1.778-1.9473 1.778-2.3283 4.7837zM147 36.34q-1.397-.84666-3.0903-1.3547-1.651-.508-3.175-.508-1.778 0-2.8787.67733-1.0583.635-1.0583 1.9897t1.1853 2.0743q1.2277.67733 3.683 1.397 2.3283.67733 3.81 1.3547 1.4817.67733 2.4977 1.9897 1.0583 1.3123 1.0583 3.4713 0 3.175-2.413 4.826-2.3707 1.651-5.9267 1.651-2.4977 0-4.8683-.80433-2.3283-.80434-3.937-2.286l1.4817-2.8787q1.397 1.27 3.429 2.032 2.0743.762 4.0217.762t3.1327-.71967q1.1853-.71966 1.1853-2.2013 0-1.524-1.27-2.286-1.2277-.762-3.7677-1.524-2.2437-.635-3.683-1.27-1.397-.67734-2.413-1.9473-.97366-1.27-.97366-3.302 0-3.1327 2.286-4.699t5.715-1.5663q2.032 0 3.9793.59267 1.9897.55033 3.429 1.524zM173.79 53.78l-5.8843-9.3133q-1.016.0847-1.651.0847h-7.5353v9.2287h-4.064v-29.633h11.599q5.6303 0 8.6783 2.6247 3.0903 2.5823 3.0903 7.366 0 3.5983-1.6933 6.0537-1.651 2.4553-4.7837 3.556l6.9003 10.033zm-7.5353-12.912q3.81 0 5.842-1.651 2.032-1.6933 2.032-4.953 0-3.175-2.032-4.7837-2.032-1.651-5.842-1.651h-7.5353v13.039zM193.84 31.26q5.207 0 7.874 3.0903 2.667 3.048 2.667 8.509 0 .84666-.0423 1.27h-17.695q.46567 3.0057 2.4977 4.7837 2.0743 1.778 5.08 1.778 1.9897 0 3.683-.71967 1.7357-.71967 3.0057-2.032l2.159 2.2437q-1.651 1.778-3.9793 2.7517-2.3283.97367-5.1647.97367-3.302 0-5.8843-1.397-2.54-1.4393-3.9793-4.0217-1.397-2.5823-1.397-5.8843t1.397-5.842q1.4393-2.5823 3.9793-4.0217 2.54-1.4817 5.7997-1.4817zm6.985 9.8213q-.16933-3.048-2.032-4.7837-1.8627-1.778-4.9107-1.778-2.9633 0-4.953 1.778-1.9473 1.778-2.3283 4.7837zM205.29 31.39h4.191l6.731 18.5 6.6887-18.5h3.9793l-8.7207 22.394h-4.1063zM230.59 31.39h3.937v22.394h-3.937zm1.9473-8.9323q1.0583 0 1.7357.71967.71966.71966.71966 1.8203t-.71966 1.8203q-.67734.71967-1.7357.71967t-1.778-.71967q-.67733-.71966-.67733-1.8203t.67733-1.8203q.71967-.71967 1.778-.71967zM251.14 31.26q5.207 0 7.874 3.0903 2.667 3.048 2.667 8.509 0 .84666-.0423 1.27h-17.695q.46566 3.0057 2.4977 4.7837 2.0743 1.778 5.08 1.778 1.9897 0 3.683-.71967 1.7357-.71967 3.0057-2.032l2.159 2.2437q-1.651 1.778-3.9793 2.7517-2.3283.97367-5.1647.97367-3.302 0-5.8843-1.397-2.54-1.4393-3.9793-4.0217-1.397-2.5823-1.397-5.8843t1.397-5.842q1.4393-2.5823 3.9793-4.0217 2.54-1.4817 5.7997-1.4817zm6.985 9.8213q-.16933-3.048-2.032-4.7837-1.8627-1.778-4.9107-1.778-2.9633 0-4.953 1.778-1.9473 1.778-2.3283 4.7837zM262.58 31.39h4.1063l6.2653 18.5 6.1807-18.5h4.1063l6.223 18.5 6.1807-18.5h4.064l-8.255 22.394h-4.1063l-6.1807-17.611-6.1807 17.611h-4.1063z"/>
  </g>
  <path fill="#eee" d="M196.76609293 96.91911206h14.5638042v14.5638042h-14.5638042z"/>
  <path d="M204.11207403 86.72727459c-9.57128454 0-17.53788462 8.27249777-17.53788462 17.24857178 0 4.0381049 2.27741938 9.16933455 3.92286965 12.71325172l13.5509434 25.97892804 13.48686634-25.97892804c1.64545577-3.54391717 3.98694672-8.41786976 3.98694672-12.71325172 0-8.97607401-7.83846245-17.24857178-17.4097415-17.24857178zm0 10.40056545c3.76269074.02201772 6.81332842 3.08457249 6.81332842 6.84652013 0 3.76194765-3.05063768 6.77821016-6.81332842 6.80143885-3.76269625-.02201772-6.81333392-3.03806005-6.81333392-6.80143885 0-3.76194764 3.05063767-6.82180524 6.81333392-6.84652013z" fill="#e53935" stroke="#ea6361" stroke-linecap="round" stroke-width="1.45637860269"/>
  <path d="M204.0931443 88.33643966c-8.6553639 0-15.92738198 7.58637057-15.92738198 15.62630617 0 3.42903971 2.10122808 8.4774277 3.73211363 11.99228148l.04513633.04403544 12.10498468 23.21267674 12.01324785-23.21267674.04513633-.04403544c1.65273263-3.55844887 3.8223973-8.29429532 3.8223973-11.99228148 0-8.0501188-7.18028125-15.62630617-15.83564515-15.62630617zm0 7.2229681c4.61308664.03302658 8.41800737 3.78082784 8.41800737 8.40333807 0 4.62245518-3.80492073 8.37421963-8.41800738 8.40333807-4.61308664-.02752215-8.37287105-3.79392838-8.37287105-8.40333807 0-4.61084084 3.7597844-8.37427468 8.37287105-8.40333807z" fill="none" stroke="#fff" stroke-linecap="round" stroke-opacity=".1" stroke-width="1.747656525"/>
  <g>
    <path fill="#eee" d="M124.69091652 96.919154h14.56380421v14.56380421h-14.5638042z"/>
    <path d="M132.03690863 86.72731653c-9.57127904 0-17.53788462 8.27249777-17.53788462 17.24857178 0 4.0381049 2.27741938 9.16933455 3.92286966 12.71325172l13.5509434 25.97892804 13.48687183-25.97892804c1.64545028-3.54391717 3.98694123-8.41786976 3.98694123-12.71325172 0-8.97607401-7.83846246-17.24857178-17.4097415-17.24857178zm0 10.40056546c3.76269075.02201772 6.81332842 3.08457248 6.81332842 6.84652013 0 3.76194764-3.05063767 6.77821015-6.81332842 6.80143885-3.76269624-.02201772-6.81333392-3.03806006-6.81333392-6.80143885 0-3.76194765 3.05063768-6.82180524 6.81333392-6.84652013z" fill="#afb42b" stroke="#ccd142" stroke-linecap="round" stroke-width="1.45637860269"/>
    <path d="M132.0179789 88.3364816c-8.6553639 0-15.92738198 7.58637057-15.92738198 15.62630617 0 3.42903972 2.10122808 8.4774277 3.73211914 11.99228148l.04513632.04403544 12.10498469 23.21267674 12.01324235-23.21267674.04513632-.04403544c1.65273263-3.55844887 3.8223973-8.29429531 3.8223973-11.99228148 0-8.0501188-7.18028125-15.62630617-15.83563414-15.62630617zm0 7.2229681c4.61308665.03302658 8.41800737 3.78082784 8.41800737 8.40333807 0 4.62245519-3.80492072 8.37421964-8.41800737 8.40333807-4.61308665-.02752215-8.37287105-3.79392838-8.37287105-8.40333807 0-4.61084084 3.7597844-8.37427468 8.37287105-8.40333807z" fill="none" stroke="#fff" stroke-linecap="round" stroke-opacity=".1" stroke-width="1.747656525"/>
  </g>
  <g>
    <path fill="#eee" d="M157.08756676 87.81770803h21.84571064v21.84571064h-21.84571064z"/>
    <path d="M168.10653234 72.52978367c-14.3569214 0-26.30682389 12.4087491-26.30682389 25.87286279 0 6.05715854 3.41612976 13.75400455 5.88430565 19.06988136l20.32641087 38.96839977 20.23031176-38.96839977c2.4681759-5.31587681 5.98041302-12.62680715 5.98041302-19.06988136 0-13.46411368-11.75769601-25.8728628-26.11461741-25.8728628zm0 15.60085126c5.64404549.0330266 10.21999465 4.62685965 10.21999465 10.26978223 0 5.64292259-4.57594916 10.16731725-10.21999465 10.2021603-5.64403723-.03302659-10.21999465-4.55709098-10.21999465-10.2021603 0-5.64292258 4.57595742-10.23270988 10.21999465-10.26978223z" fill="#2e7d32" stroke="#3da442" stroke-linecap="round" stroke-width="2.1845692269500003"/>
    <path d="M168.07813773 74.94353175c-12.98304017 0-23.89106944 11.3795581-23.89106944 23.43946389 0 5.1435606 3.1518345 12.71614406 5.59817156 17.98842578l.0677045.06605317 18.15748062 34.819022 18.0198671-34.819022.0677045-.06605317c2.47909943-5.33767436 5.73359707-12.44144543 5.73359707-17.98842578 0-12.07518059-10.770424-23.4394639-23.7534559-23.4394639zm0 10.83445429c6.91963134.04953988 12.62702182 5.67124288 12.62702182 12.6050096 0 6.93368415-5.70739048 12.56133194-12.62702182 12.6050096-6.91963134-.04128323-12.5593008-5.6908937-12.5593008-12.6050096 0-6.91626263 5.63966946-12.5614145 12.5593008-12.6050096z" fill="none" stroke="#fff" stroke-linecap="round" stroke-opacity=".1" stroke-width="2.6214863750000004"/>
  </g>
</svg>
