<?xml version="1.0" encoding="UTF-8" standalone="no"?>
<svg
   xmlns:dc="http://purl.org/dc/elements/1.1/"
   xmlns:cc="http://creativecommons.org/ns#"
   xmlns:rdf="http://www.w3.org/1999/02/22-rdf-syntax-ns#"
   xmlns:svg="http://www.w3.org/2000/svg"
   xmlns="http://www.w3.org/2000/svg"
   width="1280"
   height="640"
   viewBox="0 0 338.66666 169.33334"
   version="1.1"
   id="svg28">
  <metadata
     id="metadata34">
    <rdf:RDF>
      <cc:Work
         rdf:about="">
        <dc:format>image/svg+xml</dc:format>
        <dc:type
           rdf:resource="http://purl.org/dc/dcmitype/StillImage" />
        <dc:title></dc:title>
      </cc:Work>
    </rdf:RDF>
  </metadata>
  <defs
     id="defs32" />
  <g
     fill="#37474f"
     aria-label="NotesReview"
     id="g4">
    <path
       d="M54.939 24.15h4.0217v29.633h-4.1063l-16.933-22.945v22.945h-4.064V24.15h4.1063l16.976 22.987zM76.441 31.26q3.3443 0 5.9267 1.4393 2.6247 1.4393 4.064 4.0217 1.4817 2.54 1.4817 5.842t-1.4817 5.8843q-1.4393 2.5823-4.064 4.0217-2.5823 1.4393-5.9267 1.4393-3.3867 0-6.0113-1.4393-2.5823-1.4393-4.064-3.9793-1.4393-2.5823-1.4393-5.9267 0-3.302 1.4393-5.842 1.4817-2.5823 4.064-4.0217Q73.0544 31.26 76.441 31.26zm0 3.429q-2.2013 0-3.937 1.016-1.6933 1.016-2.667 2.8363-.93133 1.778-.93133 4.064 0 2.3283.93133 4.1487.97367 1.8203 2.667 2.8363 1.7357.97367 3.937.97367 2.159 0 3.8523-.97367 1.7357-1.016 2.667-2.8363.97367-1.8203.97367-4.1487 0-2.286-.97367-4.064-.93133-1.8203-2.667-2.8363-1.6933-1.016-3.8523-1.016zM105.44 52.3q-2.5823 1.651-5.2493 1.651t-4.318-1.5663q-1.651-1.6087-1.651-4.826v-12.404h-3.175V32.149h3.175v-6.0113h3.9793v6.0113h6.858v3.0057h-6.858v11.684q0 1.8627.67733 2.667.67733.80434 2.032.80434 1.6087 0 3.4713-1.0583zM118.85 31.26q5.207 0 7.874 3.0903 2.667 3.048 2.667 8.509 0 .84666-.0423 1.27h-17.695q.46566 3.0057 2.4977 4.7837 2.0743 1.778 5.08 1.778 1.9897 0 3.683-.71967 1.7357-.71967 3.0057-2.032l2.159 2.2437q-1.651 1.778-3.9793 2.7517-2.3283.97367-5.1647.97367-3.302 0-5.8843-1.397-2.54-1.4393-3.9793-4.0217-1.397-2.5823-1.397-5.8843t1.397-5.842q1.4393-2.5823 3.9793-4.0217 2.54-1.4817 5.7997-1.4817zm6.985 9.8213q-.16933-3.048-2.032-4.7837-1.8627-1.778-4.9107-1.778-2.9633 0-4.953 1.778-1.9473 1.778-2.3283 4.7837zM147 36.34q-1.397-.84666-3.0903-1.3547-1.651-.508-3.175-.508-1.778 0-2.8787.67733-1.0583.635-1.0583 1.9897t1.1853 2.0743q1.2277.67733 3.683 1.397 2.3283.67733 3.81 1.3547 1.4817.67733 2.4977 1.9897 1.0583 1.3123 1.0583 3.4713 0 3.175-2.413 4.826-2.3707 1.651-5.9267 1.651-2.4977 0-4.8683-.80433-2.3283-.80434-3.937-2.286l1.4817-2.8787q1.397 1.27 3.429 2.032 2.0743.762 4.0217.762t3.1327-.71967q1.1853-.71966 1.1853-2.2013 0-1.524-1.27-2.286-1.2277-.762-3.7677-1.524-2.2437-.635-3.683-1.27-1.397-.67734-2.413-1.9473-.97366-1.27-.97366-3.302 0-3.1327 2.286-4.699t5.715-1.5663q2.032 0 3.9793.59267 1.9897.55033 3.429 1.524zM173.79 53.78l-5.8843-9.3133q-1.016.0847-1.651.0847h-7.5353v9.2287h-4.064v-29.633h11.599q5.6303 0 8.6783 2.6247 3.0903 2.5823 3.0903 7.366 0 3.5983-1.6933 6.0537-1.651 2.4553-4.7837 3.556l6.9003 10.033zm-7.5353-12.912q3.81 0 5.842-1.651 2.032-1.6933 2.032-4.953 0-3.175-2.032-4.7837-2.032-1.651-5.842-1.651h-7.5353v13.039zM193.84 31.26q5.207 0 7.874 3.0903 2.667 3.048 2.667 8.509 0 .84666-.0423 1.27h-17.695q.46567 3.0057 2.4977 4.7837 2.0743 1.778 5.08 1.778 1.9897 0 3.683-.71967 1.7357-.71967 3.0057-2.032l2.159 2.2437q-1.651 1.778-3.9793 2.7517-2.3283.97367-5.1647.97367-3.302 0-5.8843-1.397-2.54-1.4393-3.9793-4.0217-1.397-2.5823-1.397-5.8843t1.397-5.842q1.4393-2.5823 3.9793-4.0217 2.54-1.4817 5.7997-1.4817zm6.985 9.8213q-.16933-3.048-2.032-4.7837-1.8627-1.778-4.9107-1.778-2.9633 0-4.953 1.778-1.9473 1.778-2.3283 4.7837zM205.29 31.39h4.191l6.731 18.5 6.6887-18.5h3.9793l-8.7207 22.394h-4.1063zM230.59 31.39h3.937v22.394h-3.937zm1.9473-8.9323q1.0583 0 1.7357.71967.71966.71966.71966 1.8203t-.71966 1.8203q-.67734.71967-1.7357.71967t-1.778-.71967q-.67733-.71966-.67733-1.8203t.67733-1.8203q.71967-.71967 1.778-.71967zM251.14 31.26q5.207 0 7.874 3.0903 2.667 3.048 2.667 8.509 0 .84666-.0423 1.27h-17.695q.46566 3.0057 2.4977 4.7837 2.0743 1.778 5.08 1.778 1.9897 0 3.683-.71967 1.7357-.71967 3.0057-2.032l2.159 2.2437q-1.651 1.778-3.9793 2.7517-2.3283.97367-5.1647.97367-3.302 0-5.8843-1.397-2.54-1.4393-3.9793-4.0217-1.397-2.5823-1.397-5.8843t1.397-5.842q1.4393-2.5823 3.9793-4.0217 2.54-1.4817 5.7997-1.4817zm6.985 9.8213q-.16933-3.048-2.032-4.7837-1.8627-1.778-4.9107-1.778-2.9633 0-4.953 1.778-1.9473 1.778-2.3283 4.7837zM262.58 31.39h4.1063l6.2653 18.5 6.1807-18.5h4.1063l6.223 18.5 6.1807-18.5h4.064l-8.255 22.394h-4.1063l-6.1807-17.611-6.1807 17.611h-4.1063z"
       id="path2" />
  </g>
  <g
     id="g886"
     transform="matrix(5.4903712,0,0,5.4903712,149.20108,-218.66449)">
    <rect
       y="57.467621"
       x="-4.4692864"
       height="2.6458333"
       width="2.6458333"
       fill="#eeeeee"
       id="rect2-2"
       style="stroke-width:0.264583" />
    <path
       d="m -3.1347301,55.616048 c -1.7388323,0 -3.1861396,1.502879 -3.1861396,3.133573 0,0.733614 0.4137431,1.665817 0.7126752,2.309644 l 2.4618245,4.719639 2.45018457,-4.719639 c 0.29893225,-0.643827 0.72431505,-1.529287 0.72431505,-2.309644 0,-1.630694 -1.42402762,-3.133573 -3.16285972,-3.133573 z m 0,1.889493 c 0.6835756,0.0045 1.2377901,0.560377 1.2377901,1.243816 0,0.683439 -0.5542145,1.231405 -1.2377901,1.23563 -0.6835756,-0.0045 -1.2377904,-0.551926 -1.2377904,-1.23563 0,-0.683439 0.5542148,-1.239327 1.2377904,-1.243816 z"
       fill="#afb42b"
       stroke="#9ca126"
       stroke-linecap="round"
       stroke-width="0.264583"
       id="path4-1" />
    <path
       d="m -3.1381689,55.908384 c -1.5724358,0 -2.8935568,1.378234 -2.8935568,2.838861 0,0.622964 0.3817336,1.540114 0.6780203,2.17866 l 0.0082,0.0082 2.199135,4.217094 2.18246827,-4.217094 0.0082,-0.0082 c 0.3002578,-0.646468 0.69442475,-1.506841 0.69442475,-2.17866 0,-1.462475 -1.30445482,-2.838861 -2.87689022,-2.838861 z m 0,1.312214 c 0.8380677,0.0055 1.5293152,0.686872 1.5293152,1.526647 0,0.839774 -0.6912475,1.521365 -1.5293152,1.526647 -0.8380682,-0.0053 -1.5211147,-0.68925 -1.5211147,-1.526647 0,-0.837662 0.6830465,-1.521365 1.5211147,-1.526647 z"
       fill="none"
       stroke="#ffffff"
       stroke-linecap="round"
       stroke-opacity="0.1"
       stroke-width="0.3175"
       id="path6-5" />
  </g>
  <g
     id="g916"
     transform="matrix(1.4526607,0,0,1.4526607,-278.68901,-155.02073)">
    <rect
       y="173.3886"
       x="327.3443"
       height="10"
       width="10"
       fill="#eeeeee"
       id="rect2-9" />
    <path
       d="m 332.38829,166.39052 c -6.57196,0 -12.0421,5.68017 -12.0421,11.84342 0,2.77272 1.56375,6.296 2.69358,8.72937 l 9.30453,17.838 9.26054,-17.838 c 1.12982,-2.43337 2.73757,-5.77999 2.73757,-8.72937 0,-6.16325 -5.38215,-11.84342 -11.95412,-11.84342 z m 0,7.14139 c 2.5836,0.017 4.67826,2.11796 4.67826,4.70104 0,2.58307 -2.09466,4.65413 -4.67826,4.6701 -2.58359,-0.017 -4.67826,-2.08603 -4.67826,-4.6701 0,-2.58308 2.09467,-4.68407 4.67826,-4.70104 z"
       fill="#e53935"
       stroke="#e2221d"
       stroke-linecap="round"
       stroke-width="1"
       id="path4-9" />
    <path
       d="m 332.3753,167.49541 c -5.94307,0 -10.93628,5.20907 -10.93628,10.72955 0,2.35451 1.44277,5.82091 2.56259,8.23431 l 0.031,0.0309 8.31169,15.93862 8.2487,-15.93862 0.031,-0.0309 c 1.13482,-2.44334 2.62459,-5.69515 2.62459,-8.23431 0,-5.52746 -4.93023,-10.72955 -10.87329,-10.72955 z m 0,4.95955 c 3.1675,0.021 5.78008,2.59605 5.78008,5.77 0,3.17395 -2.61258,5.75004 -5.78008,5.77001 -3.16751,-0.02 -5.7491,-2.60504 -5.7491,-5.77001 0,-3.16596 2.58159,-5.75004 5.7491,-5.77 z"
       fill="none"
       stroke="#ffffff"
       stroke-linecap="round"
       stroke-opacity="0.1"
       stroke-width="1.2"
       id="path6-4" />
  </g>
  <g
     id="g901"
     transform="matrix(8.2355573,0,0,8.2355573,-84.291718,-527.33687)">
    <rect
       y="74.689857"
       x="29.312792"
       height="2.6458333"
       width="2.6458333"
       fill="#eeeeee"
       id="rect2-1"
       style="stroke-width:0.264583" />
    <path
       d="m 30.647348,72.838284 c -1.738832,0 -3.186139,1.502879 -3.186139,3.133573 0,0.733614 0.413743,1.665817 0.712675,2.309644 l 2.461824,4.719639 2.450185,-4.719639 c 0.298932,-0.643827 0.724315,-1.529287 0.724315,-2.309644 0,-1.630694 -1.424028,-3.133573 -3.16286,-3.133573 z m 0,1.889493 c 0.683576,0.0045 1.23779,0.560377 1.23779,1.243816 0,0.68344 -0.554214,1.231405 -1.23779,1.235631 -0.683575,-0.0045 -1.23779,-0.551927 -1.23779,-1.235631 0,-0.683439 0.554215,-1.239327 1.23779,-1.243816 z"
       fill="#2e7d32"
       stroke="#286c2b"
       stroke-linecap="round"
       stroke-width="0.264583"
       id="path4-19" />
    <path
       d="m 30.643909,73.13062 c -1.572435,0 -2.893556,1.378234 -2.893556,2.838861 0,0.622964 0.381733,1.540114 0.67802,2.17866 l 0.0082,0.0082 2.199135,4.217094 2.182468,-4.217094 0.0082,-0.0082 c 0.300258,-0.646468 0.694425,-1.506841 0.694425,-2.17866 0,-1.462475 -1.304455,-2.838861 -2.87689,-2.838861 z m 0,1.312214 c 0.838068,0.0055 1.529316,0.686872 1.529316,1.526647 0,0.839774 -0.691248,1.521365 -1.529316,1.526647 -0.838068,-0.0053 -1.521114,-0.68925 -1.521114,-1.526647 0,-0.837662 0.683046,-1.521365 1.521114,-1.526647 z"
       fill="none"
       stroke="#ffffff"
       stroke-linecap="round"
       stroke-opacity="0.1"
       stroke-width="0.3175"
       id="path6-7" />
  </g>
</svg>
