<?xml version="1.0" encoding="UTF-8"?>
<svg id="logo" xmlns="http://www.w3.org/2000/svg" xmlns:xlink="http://www.w3.org/1999/xlink" version="1.1">
  <g id="text" fill="currentColor" aria-label="NotesReview">
    <path d="M253.45 62.703h7.295v53.754h-7.45L222.58 74.835v41.622h-7.372V62.703h7.449l30.795 41.698zM292.454 75.6q6.067 0 10.751 2.611 4.761 2.61 7.372 7.295 2.688 4.608 2.688 10.598t-2.688 10.674q-2.61 4.684-7.372 7.295-4.684 2.611-10.751 2.611-6.144 0-10.905-2.61-4.684-2.612-7.372-7.22-2.61-4.683-2.61-10.75 0-5.99 2.61-10.598 2.688-4.684 7.372-7.295 4.762-2.61 10.905-2.61zm0 6.22q-3.993 0-7.142 1.843-3.071 1.843-4.838 5.145-1.69 3.226-1.69 7.373 0 4.223 1.69 7.525 1.767 3.302 4.838 5.145 3.149 1.767 7.142 1.767 3.916 0 6.988-1.767 3.149-1.843 4.838-5.145 1.766-3.302 1.766-7.525 0-4.147-1.766-7.373-1.69-3.302-4.838-5.145-3.072-1.843-6.988-1.843zM345.058 113.767q-4.684 2.995-9.522 2.995t-7.833-2.842q-2.995-2.918-2.995-8.754v-22.5h-5.76v-5.453h5.76V66.308h7.219v10.905h12.44v5.452h-12.44v21.195q0 3.379 1.228 4.838 1.229 1.459 3.686 1.459 2.919 0 6.297-1.92zM369.384 75.6q9.446 0 14.283 5.606 4.838 5.529 4.838 15.435 0 1.536-.076 2.304h-32.1q.846 5.452 4.532 8.678 3.763 3.225 9.215 3.225 3.61 0 6.68-1.305 3.15-1.306 5.453-3.687l3.917 4.07q-2.995 3.226-7.219 4.992-4.223 1.766-9.369 1.766-5.99 0-10.674-2.534-4.607-2.61-7.218-7.295-2.534-4.684-2.534-10.674t2.534-10.598q2.61-4.684 7.218-7.295 4.608-2.688 10.52-2.688zm12.67 17.816q-.306-5.53-3.685-8.678-3.38-3.225-8.908-3.225-5.376 0-8.985 3.225-3.532 3.226-4.224 8.678zM420.448 84.815q-2.534-1.536-5.606-2.457-2.995-.922-5.76-.922-3.224 0-5.221 1.229-1.92 1.152-1.92 3.61t2.15 3.762q2.227 1.229 6.681 2.534 4.224 1.229 6.912 2.458 2.687 1.228 4.53 3.609 1.92 2.38 1.92 6.297 0 5.76-4.377 8.754-4.3 2.995-10.751 2.995-4.53 0-8.831-1.459-4.224-1.459-7.142-4.147l2.688-5.222q2.534 2.304 6.22 3.686 3.763 1.383 7.296 1.383t5.682-1.306q2.15-1.305 2.15-3.993 0-2.764-2.303-4.147-2.227-1.382-6.835-2.764-4.07-1.152-6.681-2.304-2.534-1.229-4.377-3.532-1.766-2.304-1.766-5.99 0-5.683 4.146-8.524t10.367-2.842q3.687 0 7.219 1.076 3.61.998 6.22 2.764zM469.045 116.451l-10.674-16.894q-1.843.154-2.995.154h-13.669v16.74h-7.372V62.698h21.04q10.214 0 15.743 4.762 5.606 4.684 5.606 13.361 0 6.528-3.072 10.982-2.995 4.454-8.677 6.45l12.517 18.2zM455.376 93.03q6.912 0 10.598-2.995 3.686-3.072 3.686-8.985 0-5.76-3.686-8.677-3.686-2.995-10.598-2.995h-13.669V93.03zM505.416 75.6q9.446 0 14.284 5.606 4.837 5.529 4.837 15.435 0 1.536-.076 2.304h-32.099q.845 5.452 4.53 8.678 3.764 3.225 9.216 3.225 3.61 0 6.68-1.305 3.15-1.306 5.453-3.687l3.917 4.07q-2.995 3.226-7.219 4.992-4.223 1.766-9.369 1.766-5.99 0-10.674-2.534-4.607-2.61-7.218-7.295-2.534-4.684-2.534-10.674t2.534-10.598q2.61-4.684 7.218-7.295 4.608-2.688 10.521-2.688zm12.67 17.816q-.306-5.53-3.685-8.678-3.38-3.225-8.908-3.225-5.376 0-8.985 3.225-3.532 3.226-4.223 8.678zM526.186 75.836h7.603l12.21 33.559 12.133-33.56h7.219l-15.82 40.624h-7.448zM572.08 75.836h7.142v40.623h-7.141zm3.533-16.203q1.92 0 3.149 1.305 1.305 1.306 1.305 3.302t-1.305 3.302q-1.229 1.306-3.149 1.306t-3.225-1.306q-1.229-1.305-1.229-3.302t1.229-3.302q1.305-1.305 3.225-1.305zM609.358 75.6q9.446 0 14.284 5.606 4.838 5.529 4.838 15.435 0 1.536-.077 2.304h-32.099q.845 5.452 4.531 8.678 3.763 3.225 9.215 3.225 3.61 0 6.681-1.305 3.149-1.306 5.453-3.687l3.916 4.07q-2.995 3.226-7.218 4.992-4.224 1.766-9.37 1.766-5.989 0-10.673-2.534-4.608-2.61-7.219-7.295-2.534-4.684-2.534-10.674t2.534-10.598q2.611-4.684 7.219-7.295 4.607-2.688 10.52-2.688zm12.671 17.816q-.307-5.53-3.686-8.678-3.379-3.225-8.908-3.225-5.375 0-8.985 3.225-3.532 3.226-4.223 8.678zM630.11 75.836h7.45l11.365 33.559 11.212-33.56h7.448l11.289 33.56 11.212-33.56h7.372l-14.975 40.624h-7.449l-11.211-31.947-11.212 31.947h-7.449z"/>
  </g>
  <g id="markers" stroke-linecap="round">
    <path d="M97.65 20.134c-21.86 0-40.218 19.205-40.218 39.537 0 8.672 5.295 21.444 9.423 30.338l.111.112 30.574 58.715 30.324-58.715.126-.112c4.17-9.006 9.645-20.984 9.645-30.338 0-20.373-18.137-39.537-39.968-39.537zm0 18.274c11.647.084 21.264 9.561 21.264 21.263 0 11.702-9.617 21.18-21.263 21.264A21.318 21.318 0 0176.5 59.67c0-11.673 9.492-21.193 21.15-21.263z" fill="none" stroke="#fff" stroke-opacity=".1" stroke-width="4.16856535"/>
    <path d="M40.152 36.525c-17.519 0-32.094 15.151-32.094 31.621 0 7.404 4.16 16.813 7.172 23.311l24.811 47.638 24.681-47.638c3.022-6.497 7.304-15.432 7.304-23.31 0-16.461-14.355-31.632-31.873-31.632zm0 19.07c6.89.04 12.471 5.651 12.471 12.551s-5.58 12.431-12.471 12.471a12.491 12.491 0 01-12.471-12.47c0-6.901 5.58-12.512 12.471-12.552z" fill="#ffeb3b" stroke="#ffee58" stroke-width="3.02131625"/>
    <path d="M40.118 39.47c-15.846 0-29.153 13.922-29.153 28.66 0 6.285 3.838 15.543 6.83 21.99l.081.08 22.162 42.561 21.98-42.56.09-.082C65.13 83.592 69.1 74.91 69.1 68.13c0-14.768-13.146-28.659-28.972-28.659zm0 13.247c8.442.06 15.413 6.93 15.413 15.413S48.56 83.482 40.118 83.542A15.453 15.453 0 0124.786 68.13c0-8.462 6.88-15.363 15.332-15.413z" fill="none" stroke="#fff" stroke-opacity=".235" stroke-width="3.02131625"/>
    <path d="M155.081 34.432c-17.88 0-32.758 15.464-32.758 32.274 0 7.557 4.247 17.161 7.321 23.793l25.325 48.622 25.19-48.622c3.084-6.632 7.454-15.752 7.454-23.793 0-16.8-14.651-32.284-32.531-32.284zm0 19.464c7.033.041 12.73 5.768 12.73 12.811s-5.697 12.688-12.73 12.73a12.75 12.75 0 01-12.729-12.73c0-7.043 5.696-12.77 12.73-12.811z" fill="#f44336" stroke="#ef5350" stroke-width="3.0842958"/>
    <path d="M155.047 37.428c-16.173 0-29.755 14.209-29.755 29.251 0 6.416 3.917 15.865 6.971 22.445l.083.082 22.62 43.441 22.434-43.44.093-.083c3.085-6.663 7.136-15.526 7.136-22.445 0-15.073-13.418-29.251-29.57-29.251zm0 13.52c8.617.062 15.732 7.074 15.732 15.731s-7.115 15.67-15.732 15.731a15.772 15.772 0 01-15.649-15.73c0-8.637 7.023-15.68 15.65-15.732z" fill="none" stroke="#fff" stroke-opacity=".118" stroke-width="3.0842958"/>
    <path d="M97.685 16.066c-24.167 0-44.277 20.9-44.277 43.622 0 10.215 5.74 23.194 9.895 32.157l34.229 65.72 34.048-65.72c4.169-8.963 10.075-21.29 10.075-32.157 0-22.708-19.803-43.636-43.97-43.636zm0 26.306c9.505.056 17.205 7.797 17.205 17.316 0 9.52-7.699 17.15-17.205 17.206a17.233 17.233 0 01-17.206-17.206c0-9.52 7.7-17.26 17.206-17.316z" fill="#4caf50" stroke="#66bb6a" stroke-width="4.16856535"/>
  </g>
</svg>
