<?xml version="1.0" encoding="UTF-8"?>
<svg width="1280" height="640" version="1.1" viewBox="0 0 338.66666 169.33334" xmlns="http://www.w3.org/2000/svg">
 <g transform="translate(0 -127.67)">
  <g fill="#37474f" aria-label="NotesReview">
   <path d="m54.939 151.82h4.0217v29.633h-4.1063l-16.933-22.945v22.945h-4.064v-29.633h4.1063l16.976 22.987z"/>
   <path d="m76.441 158.93q3.3443 0 5.9267 1.4393 2.6247 1.4393 4.064 4.0217 1.4817 2.54 1.4817 5.842t-1.4817 5.8843q-1.4393 2.5823-4.064 4.0217-2.5823 1.4393-5.9267 1.4393-3.3867 0-6.0113-1.4393-2.5823-1.4393-4.064-3.9793-1.4393-2.5823-1.4393-5.9267 0-3.302 1.4393-5.842 1.4817-2.5823 4.064-4.0217 2.6247-1.4393 6.0113-1.4393zm0 3.429q-2.2013 0-3.937 1.016-1.6933 1.016-2.667 2.8363-0.93133 1.778-0.93133 4.064 0 2.3283 0.93133 4.1487 0.97367 1.8203 2.667 2.8363 1.7357 0.97367 3.937 0.97367 2.159 0 3.8523-0.97367 1.7357-1.016 2.667-2.8363 0.97367-1.8203 0.97367-4.1487 0-2.286-0.97367-4.064-0.93133-1.8203-2.667-2.8363-1.6933-1.016-3.8523-1.016z"/>
   <path d="m105.44 179.97q-2.5823 1.651-5.2493 1.651-2.667 0-4.318-1.5663-1.651-1.6087-1.651-4.826v-12.404h-3.175v-3.0057h3.175v-6.0113h3.9793v6.0113h6.858v3.0057h-6.858v11.684q0 1.8627 0.67733 2.667 0.67733 0.80434 2.032 0.80434 1.6087 0 3.4713-1.0583z"/>
   <path d="m118.85 158.93q5.207 0 7.874 3.0903 2.667 3.048 2.667 8.509 0 0.84666-0.0423 1.27h-17.695q0.46566 3.0057 2.4977 4.7837 2.0743 1.778 5.08 1.778 1.9897 0 3.683-0.71967 1.7357-0.71967 3.0057-2.032l2.159 2.2437q-1.651 1.778-3.9793 2.7517-2.3283 0.97367-5.1647 0.97367-3.302 0-5.8843-1.397-2.54-1.4393-3.9793-4.0217-1.397-2.5823-1.397-5.8843t1.397-5.842q1.4393-2.5823 3.9793-4.0217 2.54-1.4817 5.7997-1.4817zm6.985 9.8213q-0.16933-3.048-2.032-4.7837-1.8627-1.778-4.9107-1.778-2.9633 0-4.953 1.778-1.9473 1.778-2.3283 4.7837z"/>
   <path d="m147 164.01q-1.397-0.84666-3.0903-1.3547-1.651-0.508-3.175-0.508-1.778 0-2.8787 0.67733-1.0583 0.635-1.0583 1.9897 0 1.3547 1.1853 2.0743 1.2277 0.67733 3.683 1.397 2.3283 0.67733 3.81 1.3547 1.4817 0.67733 2.4977 1.9897 1.0583 1.3123 1.0583 3.4713 0 3.175-2.413 4.826-2.3707 1.651-5.9267 1.651-2.4977 0-4.8683-0.80433-2.3283-0.80434-3.937-2.286l1.4817-2.8787q1.397 1.27 3.429 2.032 2.0743 0.762 4.0217 0.762t3.1327-0.71967q1.1853-0.71966 1.1853-2.2013 0-1.524-1.27-2.286-1.2277-0.762-3.7677-1.524-2.2437-0.635-3.683-1.27-1.397-0.67734-2.413-1.9473-0.97366-1.27-0.97366-3.302 0-3.1327 2.286-4.699 2.286-1.5663 5.715-1.5663 2.032 0 3.9793 0.59267 1.9897 0.55033 3.429 1.524z"/>
   <path d="m173.79 181.45-5.8843-9.3133q-1.016 0.0847-1.651 0.0847h-7.5353v9.2287h-4.064v-29.633h11.599q5.6303 0 8.6783 2.6247 3.0903 2.5823 3.0903 7.366 0 3.5983-1.6933 6.0537-1.651 2.4553-4.7837 3.556l6.9003 10.033zm-7.5353-12.912q3.81 0 5.842-1.651 2.032-1.6933 2.032-4.953 0-3.175-2.032-4.7837-2.032-1.651-5.842-1.651h-7.5353v13.039z"/>
   <path d="m193.84 158.93q5.207 0 7.874 3.0903 2.667 3.048 2.667 8.509 0 0.84666-0.0423 1.27h-17.695q0.46567 3.0057 2.4977 4.7837 2.0743 1.778 5.08 1.778 1.9897 0 3.683-0.71967 1.7357-0.71967 3.0057-2.032l2.159 2.2437q-1.651 1.778-3.9793 2.7517-2.3283 0.97367-5.1647 0.97367-3.302 0-5.8843-1.397-2.54-1.4393-3.9793-4.0217-1.397-2.5823-1.397-5.8843t1.397-5.842q1.4393-2.5823 3.9793-4.0217 2.54-1.4817 5.7997-1.4817zm6.985 9.8213q-0.16933-3.048-2.032-4.7837-1.8627-1.778-4.9107-1.778-2.9633 0-4.953 1.778-1.9473 1.778-2.3283 4.7837z"/>
   <path d="m205.29 159.06h4.191l6.731 18.5 6.6887-18.5h3.9793l-8.7207 22.394h-4.1063z"/>
   <path d="m230.59 159.06h3.937v22.394h-3.937zm1.9473-8.9323q1.0583 0 1.7357 0.71967 0.71966 0.71966 0.71966 1.8203t-0.71966 1.8203q-0.67734 0.71967-1.7357 0.71967t-1.778-0.71967q-0.67733-0.71966-0.67733-1.8203t0.67733-1.8203q0.71967-0.71967 1.778-0.71967z"/>
   <path d="m251.14 158.93q5.207 0 7.874 3.0903 2.667 3.048 2.667 8.509 0 0.84666-0.0423 1.27h-17.695q0.46566 3.0057 2.4977 4.7837 2.0743 1.778 5.08 1.778 1.9897 0 3.683-0.71967 1.7357-0.71967 3.0057-2.032l2.159 2.2437q-1.651 1.778-3.9793 2.7517-2.3283 0.97367-5.1647 0.97367-3.302 0-5.8843-1.397-2.54-1.4393-3.9793-4.0217-1.397-2.5823-1.397-5.8843t1.397-5.842q1.4393-2.5823 3.9793-4.0217 2.54-1.4817 5.7997-1.4817zm6.985 9.8213q-0.16933-3.048-2.032-4.7837-1.8627-1.778-4.9107-1.778-2.9633 0-4.953 1.778-1.9473 1.778-2.3283 4.7837z"/>
   <path d="m262.58 159.06h4.1063l6.2653 18.5 6.1807-18.5h4.1063l6.223 18.5 6.1807-18.5h4.064l-8.255 22.394h-4.1063l-6.1807-17.611-6.1807 17.611h-4.1063z"/>
  </g>
  <g stroke-linecap="round">
   <path d="m167.46 202.97c-12.843 0-23.628 11.283-23.628 23.228 0 5.0946 3.1106 12.598 5.5355 17.823l0.0657 0.0657 17.962 34.495 17.815-34.495 0.0739-0.0657c2.4494-5.2906 5.6662-12.328 5.6662-17.823 0-11.969-10.655-23.228-23.481-23.228zm0 10.736c6.8418 0.0493 12.492 5.6171 12.492 12.492 0 6.8744-5.6498 12.443-12.492 12.492a12.524 12.524 0 0 1 -12.426 -12.492c0-6.8582 5.5764-12.451 12.426-12.492z" fill="none" stroke="#fff" stroke-opacity=".1" stroke-width="2.4493"/>
   <path d="m133.68 212.6c-10.292 0-18.855 8.9009-18.855 18.577 0 4.3498 2.4442 9.8774 4.2138 13.695l14.576 27.987 14.5-27.987c1.7754-3.8172 4.2907-9.0666 4.2907-13.695 0-9.6703-8.4334-18.583-18.725-18.583zm0 11.203c4.048 0.0238 7.3267 3.3201 7.3267 7.374 0 4.0539-3.2787 7.303-7.3267 7.3266a7.3385 7.3385 0 0 1 -7.3267 -7.3266c0-4.0539 3.2787-7.3504 7.3267-7.374z" fill="#ffeb3b" stroke="#ffee58" stroke-width="1.7754"/>
   <path d="m133.66 214.33c-9.3093 0-17.127 8.1789-17.127 16.837 0 3.693 2.2548 9.1317 4.0125 12.919l0.0476 0.0476 13.02 25.004 12.913-25.004 0.0529-0.0476c1.7754-3.835 4.1072-8.9364 4.1072-12.919 0-8.676-7.7232-16.837-17.021-16.837zm0 7.7824c4.9594 0.0357 9.0548 4.0717 9.0548 9.0548 0 4.9831-4.0954 9.0192-9.0548 9.0548a9.0785 9.0785 0 0 1 -9.0075 -9.0548c0-4.9713 4.0421-9.0252 9.0075-9.0548z" fill="none" stroke="#fff" stroke-opacity=".23529" stroke-width="1.7754"/>
   <path d="m201.2 211.37c-10.504 0-19.245 9.0849-19.245 18.961 0 4.4397 2.4947 10.082 4.3008 13.978l14.878 28.565 14.799-28.565c1.8121-3.8961 4.3794-9.254 4.3794-13.978 0-9.8702-8.6077-18.967-19.112-18.967zm0 11.435c4.1317 0.0243 7.4781 3.3888 7.4781 7.5265 0 4.1377-3.3464 7.454-7.4781 7.4781a7.4902 7.4902 0 0 1 -7.4782 -7.4781c0-4.1377 3.3464-7.5023 7.4782-7.5265z" fill="#f44336" stroke="#ef5350" stroke-width="1.8121"/>
   <path d="m201.18 213.13c-9.5017 0-17.481 8.3479-17.481 17.185 0 3.7693 2.3014 9.3204 4.0954 13.186l0.0486 0.0486 13.289 25.521 13.18-25.521 0.0547-0.0486c1.8121-3.9142 4.1921-9.1211 4.1921-13.186 0-8.8553-7.8828-17.185-17.372-17.185zm0 7.9432c5.062 0.0364 9.242 4.1558 9.242 9.2419 0 5.086-4.18 9.2057-9.242 9.2419a9.2661 9.2661 0 0 1 -9.1936 -9.2419c0-5.074 4.1257-9.2117 9.1936-9.2419z" fill="none" stroke="#fff" stroke-opacity=".11765" stroke-width="1.8121"/>
   <path d="m167.48 200.58c-14.198 0-26.012 12.279-26.012 25.628 0 6.0008 3.3719 13.626 5.8131 18.892l20.109 38.61 20.003-38.61c2.4493-5.266 5.9192-12.508 5.9192-18.892 0-13.341-11.634-25.636-25.832-25.636zm0 15.455c5.5845 0.0328 10.108 4.5803 10.108 10.173 0 5.5926-4.5231 10.075-10.108 10.108a10.124 10.124 0 0 1 -10.108 -10.108c0-5.5926 4.5231-10.14 10.108-10.173z" fill="#4caf50" stroke="#66bb6a" stroke-width="2.4493"/>
  </g>
 </g>
</svg>
