<?xml version="1.0" encoding="UTF-8" standalone="no"?>
<svg viewBox="0 0 25 40" xmlns="http://www.w3.org/2000/svg">
  <rect y="7.5" x="7.5" height="10" width="10" fill="#eee" />
  <path
     d="m 12.543993,0.50192614 c -6.5719644,0 -12.04210211,5.68017476 -12.04210211,11.84342686 0,2.772715 1.56375351,6.296 2.69357531,8.729364 L 12.5,38.912722 21.76054,21.074717 c 1.129823,-2.433364 2.737569,-5.779985 2.737569,-8.729364 0,-6.1632521 -5.382152,-11.84342686 -11.954116,-11.84342686 z m 0,7.14139026 c 2.583593,0.016967 4.678262,2.1179634 4.678262,4.7010386 0,2.583078 -2.094669,4.65413 -4.678262,4.670099 -2.5835928,-0.01697 -4.678263,-2.086023 -4.678263,-4.670099 0,-2.5830752 2.0946702,-4.6840711 4.678263,-4.7010386 z"
     fill="#2e7d32"
     stroke="#286c2b"
     stroke-linecap="round"
     stroke-width="1" />
  <path
     d="m 12.530996,1.6068205 c -5.9430643,0 -10.9362773,5.2090726 -10.9362773,10.7295505 0,2.354511 1.4427725,5.820906 2.5625959,8.234306 l 0.030995,0.03095 8.3116914,15.938624 8.248699,-15.938624 0.031,-0.03095 c 1.134822,-2.443342 2.624587,-5.695146 2.624587,-8.234306 0,-5.5274646 -4.930223,-10.7295505 -10.873286,-10.7295505 z m 0,4.9595481 c 3.1675,0.020959 5.780089,2.5960526 5.780089,5.7700024 0,3.17395 -2.612589,5.750042 -5.780089,5.770004 -3.167502,-0.01997 -5.749095,-2.605037 -5.749095,-5.770004 0,-3.1659649 2.581593,-5.7500404 5.749095,-5.7700024 z"
     fill="none"
     stroke="#fff"
     stroke-linecap="round"
     stroke-opacity="0.1"
     stroke-width="1.2" />
</svg>
